<?xml version="1.0" encoding="UTF-8"?>
<!DOCTYPE svg PUBLIC "-//W3C//DTD SVG 1.1//EN" "http://www.w3.org/Graphics/SVG/1.1/DTD/svg11.dtd">
<svg width="160mm" height="90mm" viewBox="0 0 16000 9000" version="1.1" xmlns="http://www.w3.org/2000/svg" xmlns:xlink="http://www.w3.org/1999/xlink" stroke-width="28.222" stroke-linejoin="round" xml:space="preserve">
 <path fill="rgb(255,255,255)" stroke="none" d="M 8000,8986 L 0,8986 0,-1 16000,-1 16000,8986 8000,8986 Z"/>
 <path fill="none" stroke="rgb(179,179,179)" stroke-linejoin="round" d="M 5978,7763 L 1497,7763 1497,377 10459,377 10459,7763 5978,7763 Z"/>
 <path fill="none" stroke="rgb(179,179,179)" stroke-linejoin="round" d="M 10459,7762 L 1497,7762"/>
 <path fill="none" stroke="rgb(179,179,179)" stroke-linejoin="round" d="M 10459,6530 L 1497,6530"/>
 <path fill="none" stroke="rgb(179,179,179)" stroke-linejoin="round" d="M 10459,5299 L 1497,5299"/>
 <path fill="none" stroke="rgb(179,179,179)" stroke-linejoin="round" d="M 10459,4069 L 1497,4069"/>
 <path fill="none" stroke="rgb(179,179,179)" stroke-linejoin="round" d="M 10459,2838 L 1497,2838"/>
 <path fill="none" stroke="rgb(179,179,179)" stroke-linejoin="round" d="M 10459,1607 L 1497,1607"/>
 <path fill="none" stroke="rgb(179,179,179)" stroke-linejoin="round" d="M 10459,376 L 1497,376"/>
 <path fill="none" stroke="rgb(179,179,179)" stroke-linejoin="round" d="M 1497,7912 L 1497,7762"/>
 <path fill="none" stroke="rgb(179,179,179)" stroke-linejoin="round" d="M 1497,7912 L 1497,7762"/>
 <path fill="none" stroke="rgb(179,179,179)" stroke-linejoin="round" d="M 2990,7912 L 2990,7762"/>
 <path fill="none" stroke="rgb(179,179,179)" stroke-linejoin="round" d="M 2990,7912 L 2990,7762"/>
 <path fill="none" stroke="rgb(179,179,179)" stroke-linejoin="round" d="M 4484,7912 L 4484,7762"/>
 <path fill="none" stroke="rgb(179,179,179)" stroke-linejoin="round" d="M 4484,7912 L 4484,7762"/>
 <path fill="none" stroke="rgb(179,179,179)" stroke-linejoin="round" d="M 5978,7912 L 5978,7762"/>
 <path fill="none" stroke="rgb(179,179,179)" stroke-linejoin="round" d="M 5978,7912 L 5978,7762"/>
 <path fill="none" stroke="rgb(179,179,179)" stroke-linejoin="round" d="M 7472,7912 L 7472,7762"/>
 <path fill="none" stroke="rgb(179,179,179)" stroke-linejoin="round" d="M 7472,7912 L 7472,7762"/>
 <path fill="none" stroke="rgb(179,179,179)" stroke-linejoin="round" d="M 8965,7912 L 8965,7762"/>
 <path fill="none" stroke="rgb(179,179,179)" stroke-linejoin="round" d="M 8965,7912 L 8965,7762"/>
 <path fill="none" stroke="rgb(179,179,179)" stroke-linejoin="round" d="M 10459,7912 L 10459,7762"/>
 <path fill="none" stroke="rgb(179,179,179)" stroke-linejoin="round" d="M 10459,7912 L 10459,7762"/>
 <path fill="none" stroke="rgb(179,179,179)" stroke-linejoin="round" d="M 1497,7762 L 10459,7762"/>
 <path fill="none" stroke="rgb(179,179,179)" stroke-linejoin="round" d="M 1347,7762 L 1497,7762"/>
 <path fill="none" stroke="rgb(179,179,179)" stroke-linejoin="round" d="M 1347,7762 L 1497,7762"/>
 <path fill="none" stroke="rgb(179,179,179)" stroke-linejoin="round" d="M 1347,6530 L 1497,6530"/>
 <path fill="none" stroke="rgb(179,179,179)" stroke-linejoin="round" d="M 1347,6530 L 1497,6530"/>
 <path fill="none" stroke="rgb(179,179,179)" stroke-linejoin="round" d="M 1347,5299 L 1497,5299"/>
 <path fill="none" stroke="rgb(179,179,179)" stroke-linejoin="round" d="M 1347,5299 L 1497,5299"/>
 <path fill="none" stroke="rgb(179,179,179)" stroke-linejoin="round" d="M 1347,4069 L 1497,4069"/>
 <path fill="none" stroke="rgb(179,179,179)" stroke-linejoin="round" d="M 1347,4069 L 1497,4069"/>
 <path fill="none" stroke="rgb(179,179,179)" stroke-linejoin="round" d="M 1347,2838 L 1497,2838"/>
 <path fill="none" stroke="rgb(179,179,179)" stroke-linejoin="round" d="M 1347,2838 L 1497,2838"/>
 <path fill="none" stroke="rgb(179,179,179)" stroke-linejoin="round" d="M 1347,1607 L 1497,1607"/>
 <path fill="none" stroke="rgb(179,179,179)" stroke-linejoin="round" d="M 1347,1607 L 1497,1607"/>
 <path fill="none" stroke="rgb(179,179,179)" stroke-linejoin="round" d="M 1347,376 L 1497,376"/>
 <path fill="none" stroke="rgb(179,179,179)" stroke-linejoin="round" d="M 1347,376 L 1497,376"/>
 <path fill="none" stroke="rgb(179,179,179)" stroke-linejoin="round" d="M 1497,7762 L 1497,376"/>
 <path fill="none" stroke="rgb(179,179,179)" stroke-linejoin="round" d="M 10609,7762 L 10459,7762"/>
 <path fill="none" stroke="rgb(179,179,179)" stroke-linejoin="round" d="M 10609,7762 L 10459,7762"/>
 <path fill="none" stroke="rgb(179,179,179)" stroke-linejoin="round" d="M 10609,6530 L 10459,6530"/>
 <path fill="none" stroke="rgb(179,179,179)" stroke-linejoin="round" d="M 10609,6530 L 10459,6530"/>
 <path fill="none" stroke="rgb(179,179,179)" stroke-linejoin="round" d="M 10609,5299 L 10459,5299"/>
 <path fill="none" stroke="rgb(179,179,179)" stroke-linejoin="round" d="M 10609,5299 L 10459,5299"/>
 <path fill="none" stroke="rgb(179,179,179)" stroke-linejoin="round" d="M 10609,4069 L 10459,4069"/>
 <path fill="none" stroke="rgb(179,179,179)" stroke-linejoin="round" d="M 10609,4069 L 10459,4069"/>
 <path fill="none" stroke="rgb(179,179,179)" stroke-linejoin="round" d="M 10609,2838 L 10459,2838"/>
 <path fill="none" stroke="rgb(179,179,179)" stroke-linejoin="round" d="M 10609,2838 L 10459,2838"/>
 <path fill="none" stroke="rgb(179,179,179)" stroke-linejoin="round" d="M 10609,1607 L 10459,1607"/>
 <path fill="none" stroke="rgb(179,179,179)" stroke-linejoin="round" d="M 10609,1607 L 10459,1607"/>
 <path fill="none" stroke="rgb(179,179,179)" stroke-linejoin="round" d="M 10609,376 L 10459,376"/>
 <path fill="none" stroke="rgb(179,179,179)" stroke-linejoin="round" d="M 10609,376 L 10459,376"/>
 <path fill="none" stroke="rgb(179,179,179)" stroke-linejoin="round" d="M 10459,7762 L 10459,376"/>
 <path fill="rgb(0,69,134)" stroke="none" d="M 9214,7762 L 10210,7762 10210,7191 9214,7191 9214,7762 Z"/>
 <path fill="rgb(0,69,134)" stroke="none" d="M 7721,7762 L 8716,7762 8716,7262 7721,7262 7721,7762 Z"/>
 <path fill="rgb(0,69,134)" stroke="none" d="M 6227,7762 L 7223,7762 7223,7671 6227,7671 6227,7762 Z"/>
 <path fill="rgb(0,69,134)" stroke="none" d="M 4733,7762 L 5729,7762 5729,7425 4733,7425 4733,7762 Z"/>
 <path fill="rgb(0,69,134)" stroke="none" d="M 3239,7762 L 4235,7762 4235,6874 3239,6874 3239,7762 Z"/>
 <path fill="rgb(0,69,134)" stroke="none" d="M 1745,7762 L 2741,7762 2741,6640 1745,6640 1745,7762 Z"/>
 <path fill="rgb(255,66,14)" stroke="none" d="M 9214,7191 L 10210,7191 10210,7056 9214,7056 9214,7191 Z"/>
 <path fill="rgb(255,66,14)" stroke="none" d="M 7721,7262 L 8716,7262 8716,7122 7721,7122 7721,7262 Z"/>
 <path fill="rgb(255,66,14)" stroke="none" d="M 6227,7671 L 7223,7671 7223,7621 6227,7621 6227,7671 Z"/>
 <path fill="rgb(255,66,14)" stroke="none" d="M 4733,7425 L 5729,7425 5729,7327 4733,7327 4733,7425 Z"/>
 <path fill="rgb(255,66,14)" stroke="none" d="M 3239,6874 L 4235,6874 4235,6492 3239,6492 3239,6874 Z"/>
 <path fill="rgb(255,66,14)" stroke="none" d="M 1745,6640 L 2741,6640 2741,6272 1745,6272 1745,6640 Z"/>
 <path fill="rgb(255,211,32)" stroke="none" d="M 9214,7056 L 10210,7056 10210,6901 9214,6901 9214,7056 Z"/>
 <path fill="rgb(255,211,32)" stroke="none" d="M 7721,7122 L 8716,7122 8716,6960 7721,6960 7721,7122 Z"/>
 <path fill="rgb(255,211,32)" stroke="none" d="M 6227,7621 L 7223,7621 7223,7569 6227,7569 6227,7621 Z"/>
 <path fill="rgb(255,211,32)" stroke="none" d="M 4733,7327 L 5729,7327 5729,7233 4733,7233 4733,7327 Z"/>
 <path fill="rgb(255,211,32)" stroke="none" d="M 3239,6492 L 4235,6492 4235,6101 3239,6101 3239,6492 Z"/>
 <path fill="rgb(255,211,32)" stroke="none" d="M 1745,6272 L 2741,6272 2741,5883 1745,5883 1745,6272 Z"/>
 <path fill="rgb(87,157,28)" stroke="none" d="M 9214,6901 L 10210,6901 10210,6429 9214,6429 9214,6901 Z"/>
 <path fill="rgb(87,157,28)" stroke="none" d="M 7721,6960 L 8716,6960 8716,6671 7721,6671 7721,6960 Z"/>
 <path fill="rgb(87,157,28)" stroke="none" d="M 6227,7569 L 7223,7569 7223,7535 6227,7535 6227,7569 Z"/>
 <path fill="rgb(87,157,28)" stroke="none" d="M 4733,7233 L 5729,7233 5729,7113 4733,7113 4733,7233 Z"/>
 <path fill="rgb(87,157,28)" stroke="none" d="M 3239,6101 L 4235,6101 4235,5696 3239,5696 3239,6101 Z"/>
 <path fill="rgb(87,157,28)" stroke="none" d="M 1745,5883 L 2741,5883 2741,4733 1745,4733 1745,5883 Z"/>
 <path fill="rgb(126,0,33)" stroke="none" d="M 9214,6429 L 10210,6429 10210,6267 9214,6267 9214,6429 Z"/>
 <path fill="rgb(126,0,33)" stroke="none" d="M 7721,6671 L 8716,6671 8716,6512 7721,6512 7721,6671 Z"/>
 <path fill="rgb(126,0,33)" stroke="none" d="M 6227,7535 L 7223,7535 7223,7484 6227,7484 6227,7535 Z"/>
 <path fill="rgb(126,0,33)" stroke="none" d="M 4733,7113 L 5729,7113 5729,7004 4733,7004 4733,7113 Z"/>
 <path fill="rgb(126,0,33)" stroke="none" d="M 3239,5696 L 4235,5696 4235,5583 3239,5583 3239,5696 Z"/>
 <path fill="rgb(126,0,33)" stroke="none" d="M 1745,4733 L 2741,4733 2741,4618 1745,4618 1745,4733 Z"/>
 <path fill="rgb(131,202,255)" stroke="none" d="M 9214,6267 L 10210,6267 10210,5829 9214,5829 9214,6267 Z"/>
 <path fill="rgb(131,202,255)" stroke="none" d="M 7721,6512 L 8716,6512 8716,6340 7721,6340 7721,6512 Z"/>
 <path fill="rgb(131,202,255)" stroke="none" d="M 6227,7484 L 7223,7484 7223,7441 6227,7441 6227,7484 Z"/>
 <path fill="rgb(131,202,255)" stroke="none" d="M 4733,7004 L 5729,7004 5729,6872 4733,6872 4733,7004 Z"/>
 <path fill="rgb(131,202,255)" stroke="none" d="M 3239,5583 L 4235,5583 4235,5357 3239,5357 3239,5583 Z"/>
 <path fill="rgb(131,202,255)" stroke="none" d="M 1745,4618 L 2741,4618 2741,3644 1745,3644 1745,4618 Z"/>
 <path fill="rgb(49,64,4)" stroke="none" d="M 9214,5829 L 10210,5829 10210,4995 9214,4995 9214,5829 Z"/>
 <path fill="rgb(49,64,4)" stroke="none" d="M 7721,6340 L 8716,6340 8716,6166 7721,6166 7721,6340 Z"/>
 <path fill="rgb(49,64,4)" stroke="none" d="M 6227,7441 L 7223,7441 7223,7374 6227,7374 6227,7441 Z"/>
 <path fill="rgb(49,64,4)" stroke="none" d="M 4733,6872 L 5729,6872 5729,6651 4733,6651 4733,6872 Z"/>
 <path fill="rgb(49,64,4)" stroke="none" d="M 3239,5357 L 4235,5357 4235,5151 3239,5151 3239,5357 Z"/>
 <path fill="rgb(49,64,4)" stroke="none" d="M 1745,3644 L 2741,3644 2741,2555 1745,2555 1745,3644 Z"/>
 <path fill="rgb(174,207,0)" stroke="none" d="M 9214,4995 L 10210,4995 10210,4654 9214,4654 9214,4995 Z"/>
 <path fill="rgb(174,207,0)" stroke="none" d="M 7721,6166 L 8716,6166 8716,5831 7721,5831 7721,6166 Z"/>
 <path fill="rgb(174,207,0)" stroke="none" d="M 6227,7374 L 7223,7374 7223,7338 6227,7338 6227,7374 Z"/>
 <path fill="rgb(174,207,0)" stroke="none" d="M 4733,6651 L 5729,6651 5729,6531 4733,6531 4733,6651 Z"/>
 <path fill="rgb(174,207,0)" stroke="none" d="M 3239,5151 L 4235,5151 4235,4472 3239,4472 3239,5151 Z"/>
 <path fill="rgb(174,207,0)" stroke="none" d="M 1745,2555 L 2741,2555 2741,1881 1745,1881 1745,2555 Z"/>
 <path fill="rgb(75,31,111)" stroke="none" d="M 9214,4654 L 10210,4654 10210,420 9214,420 9214,4654 Z"/>
 <path fill="rgb(75,31,111)" stroke="none" d="M 7721,5831 L 8716,5831 8716,4847 7721,4847 7721,5831 Z"/>
 <path fill="rgb(75,31,111)" stroke="none" d="M 6227,7338 L 7223,7338 7223,6919 6227,6919 6227,7338 Z"/>
 <path fill="rgb(75,31,111)" stroke="none" d="M 4733,6531 L 5729,6531 5729,5187 4733,5187 4733,6531 Z"/>
 <path fill="rgb(75,31,111)" stroke="none" d="M 3239,4472 L 4235,4472 4235,3456 3239,3456 3239,4472 Z"/>
 <path fill="rgb(75,31,111)" stroke="none" d="M 1745,1881 L 2741,1881 2741,376 1745,376 1745,1881 Z"/>
 <path fill="rgb(255,149,14)" stroke="none" d="M 9214,420 L 10210,420 10210,376 9214,376 9214,420 Z"/>
 <path fill="rgb(255,149,14)" stroke="none" d="M 7721,4847 L 8716,4847 8716,4657 7721,4657 7721,4847 Z"/>
 <path fill="rgb(255,149,14)" stroke="none" d="M 6227,6919 L 7223,6919 7223,6619 6227,6619 6227,6919 Z"/>
 <path fill="rgb(255,149,14)" stroke="none" d="M 4733,5187 L 5729,5187 5729,4135 4733,4135 4733,5187 Z"/>
 <path fill="rgb(255,149,14)" stroke="none" d="M 3239,3456 L 4235,3456 4235,3236 3239,3236 3239,3456 Z"/>
 <path fill="rgb(197,0,11)" stroke="none" d="M 7721,4657 L 8716,4657 8716,3626 7721,3626 7721,4657 Z"/>
 <path fill="rgb(197,0,11)" stroke="none" d="M 6227,6619 L 7223,6619 7223,6319 6227,6319 6227,6619 Z"/>
 <path fill="rgb(197,0,11)" stroke="none" d="M 4733,4135 L 5729,4135 5729,3195 4733,3195 4733,4135 Z"/>
 <path fill="rgb(197,0,11)" stroke="none" d="M 3239,3236 L 4235,3236 4235,2075 3239,2075 3239,3236 Z"/>
 <path fill="none" stroke="rgb(0,132,209)" stroke-width="80" stroke-linejoin="round" d="M 2243,1837 L 3737,6340 5231,6620 6725,7401 8218,6727 9712,4561"/>
 <text class="TextShape"><tspan class="TextParagraph" font-family="Liberation Sans, sans-serif" font-size="353px" font-weight="400"><tspan class="TextPosition" x="1714" y="8330"><tspan fill="rgb(0,0,0)" stroke="none">Zynq7</tspan></tspan></tspan><tspan class="TextParagraph" font-family="Liberation Sans, sans-serif" font-size="353px" font-weight="400"><tspan class="TextPosition" x="1714" y="8727"><tspan fill="rgb(0,0,0)" stroke="none">(woPL)</tspan></tspan></tspan></text>
 <text class="TextShape"><tspan class="TextParagraph" font-family="Liberation Sans, sans-serif" font-size="353px" font-weight="400"><tspan class="TextPosition" x="3260" y="8330"><tspan fill="rgb(0,0,0)" stroke="none">Zynq7</tspan></tspan></tspan><tspan class="TextParagraph" font-family="Liberation Sans, sans-serif" font-size="353px" font-weight="400"><tspan class="TextPosition" x="3260" y="8727"><tspan fill="rgb(0,0,0)" stroke="none">(wPL)</tspan></tspan></tspan></text>
 <text class="TextShape"><tspan class="TextParagraph" font-family="Liberation Sans, sans-serif" font-size="353px" font-weight="400"><tspan class="TextPosition" x="4649" y="8330"><tspan fill="rgb(0,0,0)" stroke="none">Celeron</tspan></tspan></tspan><tspan class="TextParagraph" font-family="Liberation Sans, sans-serif" font-size="353px" font-weight="400"><tspan class="TextPosition" x="4649" y="8727"><tspan fill="rgb(0,0,0)" stroke="none">N3450</tspan></tspan></tspan></text>
 <text class="TextShape"><tspan class="TextParagraph" font-family="Liberation Sans, sans-serif" font-size="353px" font-weight="400"><tspan class="TextPosition" x="6182" y="8330"><tspan fill="rgb(0,0,0)" stroke="none">Core i5</tspan></tspan></tspan><tspan class="TextParagraph" font-family="Liberation Sans, sans-serif" font-size="353px" font-weight="400"><tspan class="TextPosition" x="6182" y="8727"><tspan fill="rgb(0,0,0)" stroke="none">8400</tspan></tspan></tspan></text>
 <text class="TextShape"><tspan class="TextParagraph" font-family="Liberation Sans, sans-serif" font-size="353px" font-weight="400"><tspan class="TextPosition" x="7571" y="8330"><tspan fill="rgb(0,0,0)" stroke="none">ZynqMP</tspan></tspan></tspan><tspan class="TextParagraph" font-family="Liberation Sans, sans-serif" font-size="353px" font-weight="400"><tspan class="TextPosition" x="7571" y="8727"><tspan fill="rgb(0,0,0)" stroke="none">(wPL)</tspan></tspan></tspan></text>
 <text class="TextShape"><tspan class="TextParagraph" font-family="Liberation Sans, sans-serif" font-size="353px" font-weight="400"><tspan class="TextPosition" x="9065" y="8330"><tspan fill="rgb(0,0,0)" stroke="none">ZynqMP</tspan></tspan></tspan><tspan class="TextParagraph" font-family="Liberation Sans, sans-serif" font-size="353px" font-weight="400"><tspan class="TextPosition" x="9065" y="8727"><tspan fill="rgb(0,0,0)" stroke="none">(woPL)</tspan></tspan></tspan></text>
 <text class="TextShape"><tspan class="TextParagraph" font-family="Liberation Sans, sans-serif" font-size="353px" font-weight="400"><tspan class="TextPosition" x="1062" y="7883"><tspan fill="rgb(0,0,0)" stroke="none">0</tspan></tspan></tspan></text>
 <text class="TextShape"><tspan class="TextParagraph" font-family="Liberation Sans, sans-serif" font-size="353px" font-weight="400"><tspan class="TextPosition" x="506" y="6651"><tspan fill="rgb(0,0,0)" stroke="none">5000</tspan></tspan></tspan></text>
 <text class="TextShape"><tspan class="TextParagraph" font-family="Liberation Sans, sans-serif" font-size="353px" font-weight="400"><tspan class="TextPosition" x="321" y="5420"><tspan fill="rgb(0,0,0)" stroke="none">10000</tspan></tspan></tspan></text>
 <text class="TextShape"><tspan class="TextParagraph" font-family="Liberation Sans, sans-serif" font-size="353px" font-weight="400"><tspan class="TextPosition" x="321" y="4189"><tspan fill="rgb(0,0,0)" stroke="none">15000</tspan></tspan></tspan></text>
 <text class="TextShape"><tspan class="TextParagraph" font-family="Liberation Sans, sans-serif" font-size="353px" font-weight="400"><tspan class="TextPosition" x="321" y="2958"><tspan fill="rgb(0,0,0)" stroke="none">20000</tspan></tspan></tspan></text>
 <text class="TextShape"><tspan class="TextParagraph" font-family="Liberation Sans, sans-serif" font-size="353px" font-weight="400"><tspan class="TextPosition" x="321" y="1727"><tspan fill="rgb(0,0,0)" stroke="none">25000</tspan></tspan></tspan></text>
 <text class="TextShape"><tspan class="TextParagraph" font-family="Liberation Sans, sans-serif" font-size="353px" font-weight="400"><tspan class="TextPosition" x="321" y="496"><tspan fill="rgb(0,0,0)" stroke="none">30000</tspan></tspan></tspan></text>
 <text class="TextShape"><tspan class="TextParagraph" font-family="Liberation Sans, sans-serif" font-size="353px" font-weight="400"><tspan class="TextPosition" x="10709" y="7883"><tspan fill="rgb(0,0,0)" stroke="none">0</tspan></tspan></tspan></text>
 <text class="TextShape"><tspan class="TextParagraph" font-family="Liberation Sans, sans-serif" font-size="353px" font-weight="400"><tspan class="TextPosition" x="10709" y="6651"><tspan fill="rgb(0,0,0)" stroke="none">20000</tspan></tspan></tspan></text>
 <text class="TextShape"><tspan class="TextParagraph" font-family="Liberation Sans, sans-serif" font-size="353px" font-weight="400"><tspan class="TextPosition" x="10709" y="5420"><tspan fill="rgb(0,0,0)" stroke="none">40000</tspan></tspan></tspan></text>
 <text class="TextShape"><tspan class="TextParagraph" font-family="Liberation Sans, sans-serif" font-size="353px" font-weight="400"><tspan class="TextPosition" x="10709" y="4189"><tspan fill="rgb(0,0,0)" stroke="none">60000</tspan></tspan></tspan></text>
 <text class="TextShape"><tspan class="TextParagraph" font-family="Liberation Sans, sans-serif" font-size="353px" font-weight="400"><tspan class="TextPosition" x="10709" y="2958"><tspan fill="rgb(0,0,0)" stroke="none">80000</tspan></tspan></tspan></text>
 <text class="TextShape"><tspan class="TextParagraph" font-family="Liberation Sans, sans-serif" font-size="353px" font-weight="400"><tspan class="TextPosition" x="10709" y="1727"><tspan fill="rgb(0,0,0)" stroke="none">100000</tspan></tspan></tspan></text>
 <text class="TextShape"><tspan class="TextParagraph" font-family="Liberation Sans, sans-serif" font-size="353px" font-weight="400"><tspan class="TextPosition" x="10709" y="496"><tspan fill="rgb(0,0,0)" stroke="none">120000</tspan></tspan></tspan></text>
 <path fill="rgb(0,69,134)" stroke="none" d="M 12658,6838 L 12258,6838 12258,6627 13058,6627 13058,6838 12658,6838 Z"/>
 <path fill="rgb(255,66,14)" stroke="none" d="M 12658,6340 L 12258,6340 12258,6129 13058,6129 13058,6340 12658,6340 Z"/>
 <path fill="rgb(255,211,32)" stroke="none" d="M 12658,5842 L 12258,5842 12258,5631 13058,5631 13058,5842 12658,5842 Z"/>
 <path fill="rgb(87,157,28)" stroke="none" d="M 12658,5344 L 12258,5344 12258,5133 13058,5133 13058,5344 12658,5344 Z"/>
 <path fill="rgb(126,0,33)" stroke="none" d="M 12658,4846 L 12258,4846 12258,4635 13058,4635 13058,4846 12658,4846 Z"/>
 <path fill="rgb(131,202,255)" stroke="none" d="M 12658,4349 L 12258,4349 12258,4138 13058,4138 13058,4349 12658,4349 Z"/>
 <path fill="rgb(49,64,4)" stroke="none" d="M 12658,3851 L 12258,3851 12258,3640 13058,3640 13058,3851 12658,3851 Z"/>
 <path fill="rgb(174,207,0)" stroke="none" d="M 12658,3353 L 12258,3353 12258,3142 13058,3142 13058,3353 12658,3353 Z"/>
 <path fill="rgb(75,31,111)" stroke="none" d="M 12658,2855 L 12258,2855 12258,2644 13058,2644 13058,2855 12658,2855 Z"/>
 <path fill="rgb(255,149,14)" stroke="none" d="M 12658,2357 L 12258,2357 12258,2146 13058,2146 13058,2357 12658,2357 Z"/>
 <path fill="rgb(197,0,11)" stroke="none" d="M 12658,1859 L 12258,1859 12258,1648 13058,1648 13058,1859 12658,1859 Z"/>
 <path fill="none" stroke="rgb(0,132,209)" stroke-width="80" stroke-linejoin="round" d="M 12258,7230 L 13058,7230"/>
 <text class="TextShape"><tspan class="TextParagraph" font-family="Liberation Sans, sans-serif" font-size="353px" font-weight="400"><tspan class="TextPosition" x="13158" y="1873"><tspan fill="rgb(0,0,0)" stroke="none">conv d param</tspan></tspan></tspan></text>
 <text class="TextShape"><tspan class="TextParagraph" font-family="Liberation Sans, sans-serif" font-size="353px" font-weight="400"><tspan class="TextPosition" x="13158" y="2371"><tspan fill="rgb(0,0,0)" stroke="none">conv back</tspan></tspan></tspan></text>
 <text class="TextShape"><tspan class="TextParagraph" font-family="Liberation Sans, sans-serif" font-size="353px" font-weight="400"><tspan class="TextPosition" x="13158" y="2869"><tspan fill="rgb(0,0,0)" stroke="none">conv forward</tspan></tspan></tspan></text>
 <text class="TextShape"><tspan class="TextParagraph" font-family="Liberation Sans, sans-serif" font-size="353px" font-weight="400"><tspan class="TextPosition" x="13158" y="3367"><tspan fill="rgb(0,0,0)" stroke="none">dwconv d param</tspan></tspan></tspan></text>
 <text class="TextShape"><tspan class="TextParagraph" font-family="Liberation Sans, sans-serif" font-size="353px" font-weight="400"><tspan class="TextPosition" x="13158" y="3865"><tspan fill="rgb(0,0,0)" stroke="none">dwconv back</tspan></tspan></tspan></text>
 <text class="TextShape"><tspan class="TextParagraph" font-family="Liberation Sans, sans-serif" font-size="353px" font-weight="400"><tspan class="TextPosition" x="13158" y="4363"><tspan fill="rgb(0,0,0)" stroke="none">dwconv forward</tspan></tspan></tspan></text>
 <text class="TextShape"><tspan class="TextParagraph" font-family="Liberation Sans, sans-serif" font-size="353px" font-weight="400"><tspan class="TextPosition" x="13158" y="4860"><tspan fill="rgb(0,0,0)" stroke="none">pool back</tspan></tspan></tspan></text>
 <text class="TextShape"><tspan class="TextParagraph" font-family="Liberation Sans, sans-serif" font-size="353px" font-weight="400"><tspan class="TextPosition" x="13158" y="5358"><tspan fill="rgb(0,0,0)" stroke="none">pool forward</tspan></tspan></tspan></text>
 <text class="TextShape"><tspan class="TextParagraph" font-family="Liberation Sans, sans-serif" font-size="353px" font-weight="400"><tspan class="TextPosition" x="13158" y="5856"><tspan fill="rgb(0,0,0)" stroke="none">activ back</tspan></tspan></tspan></text>
 <text class="TextShape"><tspan class="TextParagraph" font-family="Liberation Sans, sans-serif" font-size="353px" font-weight="400"><tspan class="TextPosition" x="13158" y="6354"><tspan fill="rgb(0,0,0)" stroke="none">activ forward</tspan></tspan></tspan></text>
 <text class="TextShape"><tspan class="TextParagraph" font-family="Liberation Sans, sans-serif" font-size="353px" font-weight="400"><tspan class="TextPosition" x="13158" y="6852"><tspan fill="rgb(0,0,0)" stroke="none">other</tspan></tspan></tspan></text>
 <text class="TextShape"><tspan class="TextParagraph" font-family="Liberation Sans, sans-serif" font-size="353px" font-weight="400"><tspan class="TextPosition" x="13158" y="7350"><tspan fill="rgb(0,0,0)" stroke="none">total</tspan></tspan></tspan></text>
</svg>