<?xml version="1.0" encoding="UTF-8"?>
<!DOCTYPE svg PUBLIC "-//W3C//DTD SVG 1.1//EN" "http://www.w3.org/Graphics/SVG/1.1/DTD/svg11.dtd">
<svg width="160mm" height="90mm" viewBox="0 0 16000 9000" version="1.1" xmlns="http://www.w3.org/2000/svg" xmlns:xlink="http://www.w3.org/1999/xlink" stroke-width="28.222" stroke-linejoin="round" xml:space="preserve">
 <path fill="rgb(255,255,255)" stroke="none" d="M 8000,8986 L 0,8986 0,-1 16000,-1 16000,8986 8000,8986 Z"/>
 <path fill="none" stroke="rgb(179,179,179)" stroke-linejoin="round" d="M 5978,7763 L 1497,7763 1497,377 10459,377 10459,7763 5978,7763 Z"/>
 <path fill="none" stroke="rgb(179,179,179)" stroke-linejoin="round" d="M 10459,7762 L 1497,7762"/>
 <path fill="none" stroke="rgb(179,179,179)" stroke-linejoin="round" d="M 10459,6706 L 1497,6706"/>
 <path fill="none" stroke="rgb(179,179,179)" stroke-linejoin="round" d="M 10459,5651 L 1497,5651"/>
 <path fill="none" stroke="rgb(179,179,179)" stroke-linejoin="round" d="M 10459,4596 L 1497,4596"/>
 <path fill="none" stroke="rgb(179,179,179)" stroke-linejoin="round" d="M 10459,3541 L 1497,3541"/>
 <path fill="none" stroke="rgb(179,179,179)" stroke-linejoin="round" d="M 10459,2486 L 1497,2486"/>
 <path fill="none" stroke="rgb(179,179,179)" stroke-linejoin="round" d="M 10459,1431 L 1497,1431"/>
 <path fill="none" stroke="rgb(179,179,179)" stroke-linejoin="round" d="M 10459,376 L 1497,376"/>
 <path fill="none" stroke="rgb(179,179,179)" stroke-linejoin="round" d="M 1497,7912 L 1497,7762"/>
 <path fill="none" stroke="rgb(179,179,179)" stroke-linejoin="round" d="M 1497,7912 L 1497,7762"/>
 <path fill="none" stroke="rgb(179,179,179)" stroke-linejoin="round" d="M 3737,7912 L 3737,7762"/>
 <path fill="none" stroke="rgb(179,179,179)" stroke-linejoin="round" d="M 3737,7912 L 3737,7762"/>
 <path fill="none" stroke="rgb(179,179,179)" stroke-linejoin="round" d="M 5978,7912 L 5978,7762"/>
 <path fill="none" stroke="rgb(179,179,179)" stroke-linejoin="round" d="M 5978,7912 L 5978,7762"/>
 <path fill="none" stroke="rgb(179,179,179)" stroke-linejoin="round" d="M 8218,7912 L 8218,7762"/>
 <path fill="none" stroke="rgb(179,179,179)" stroke-linejoin="round" d="M 8218,7912 L 8218,7762"/>
 <path fill="none" stroke="rgb(179,179,179)" stroke-linejoin="round" d="M 10459,7912 L 10459,7762"/>
 <path fill="none" stroke="rgb(179,179,179)" stroke-linejoin="round" d="M 10459,7912 L 10459,7762"/>
 <path fill="none" stroke="rgb(179,179,179)" stroke-linejoin="round" d="M 1497,7762 L 10459,7762"/>
 <path fill="none" stroke="rgb(179,179,179)" stroke-linejoin="round" d="M 1347,7762 L 1497,7762"/>
 <path fill="none" stroke="rgb(179,179,179)" stroke-linejoin="round" d="M 1347,7762 L 1497,7762"/>
 <path fill="none" stroke="rgb(179,179,179)" stroke-linejoin="round" d="M 1347,6706 L 1497,6706"/>
 <path fill="none" stroke="rgb(179,179,179)" stroke-linejoin="round" d="M 1347,6706 L 1497,6706"/>
 <path fill="none" stroke="rgb(179,179,179)" stroke-linejoin="round" d="M 1347,5651 L 1497,5651"/>
 <path fill="none" stroke="rgb(179,179,179)" stroke-linejoin="round" d="M 1347,5651 L 1497,5651"/>
 <path fill="none" stroke="rgb(179,179,179)" stroke-linejoin="round" d="M 1347,4596 L 1497,4596"/>
 <path fill="none" stroke="rgb(179,179,179)" stroke-linejoin="round" d="M 1347,4596 L 1497,4596"/>
 <path fill="none" stroke="rgb(179,179,179)" stroke-linejoin="round" d="M 1347,3541 L 1497,3541"/>
 <path fill="none" stroke="rgb(179,179,179)" stroke-linejoin="round" d="M 1347,3541 L 1497,3541"/>
 <path fill="none" stroke="rgb(179,179,179)" stroke-linejoin="round" d="M 1347,2486 L 1497,2486"/>
 <path fill="none" stroke="rgb(179,179,179)" stroke-linejoin="round" d="M 1347,2486 L 1497,2486"/>
 <path fill="none" stroke="rgb(179,179,179)" stroke-linejoin="round" d="M 1347,1431 L 1497,1431"/>
 <path fill="none" stroke="rgb(179,179,179)" stroke-linejoin="round" d="M 1347,1431 L 1497,1431"/>
 <path fill="none" stroke="rgb(179,179,179)" stroke-linejoin="round" d="M 1347,376 L 1497,376"/>
 <path fill="none" stroke="rgb(179,179,179)" stroke-linejoin="round" d="M 1347,376 L 1497,376"/>
 <path fill="none" stroke="rgb(179,179,179)" stroke-linejoin="round" d="M 1497,7762 L 1497,376"/>
 <path fill="none" stroke="rgb(179,179,179)" stroke-linejoin="round" d="M 10609,7762 L 10459,7762"/>
 <path fill="none" stroke="rgb(179,179,179)" stroke-linejoin="round" d="M 10609,7762 L 10459,7762"/>
 <path fill="none" stroke="rgb(179,179,179)" stroke-linejoin="round" d="M 10609,7498 L 10459,7498"/>
 <path fill="none" stroke="rgb(179,179,179)" stroke-linejoin="round" d="M 10609,7498 L 10459,7498"/>
 <path fill="none" stroke="rgb(179,179,179)" stroke-linejoin="round" d="M 10609,7234 L 10459,7234"/>
 <path fill="none" stroke="rgb(179,179,179)" stroke-linejoin="round" d="M 10609,7234 L 10459,7234"/>
 <path fill="none" stroke="rgb(179,179,179)" stroke-linejoin="round" d="M 10609,6970 L 10459,6970"/>
 <path fill="none" stroke="rgb(179,179,179)" stroke-linejoin="round" d="M 10609,6970 L 10459,6970"/>
 <path fill="none" stroke="rgb(179,179,179)" stroke-linejoin="round" d="M 10609,6706 L 10459,6706"/>
 <path fill="none" stroke="rgb(179,179,179)" stroke-linejoin="round" d="M 10609,6706 L 10459,6706"/>
 <path fill="none" stroke="rgb(179,179,179)" stroke-linejoin="round" d="M 10609,6442 L 10459,6442"/>
 <path fill="none" stroke="rgb(179,179,179)" stroke-linejoin="round" d="M 10609,6442 L 10459,6442"/>
 <path fill="none" stroke="rgb(179,179,179)" stroke-linejoin="round" d="M 10609,6179 L 10459,6179"/>
 <path fill="none" stroke="rgb(179,179,179)" stroke-linejoin="round" d="M 10609,6179 L 10459,6179"/>
 <path fill="none" stroke="rgb(179,179,179)" stroke-linejoin="round" d="M 10609,5915 L 10459,5915"/>
 <path fill="none" stroke="rgb(179,179,179)" stroke-linejoin="round" d="M 10609,5915 L 10459,5915"/>
 <path fill="none" stroke="rgb(179,179,179)" stroke-linejoin="round" d="M 10609,5651 L 10459,5651"/>
 <path fill="none" stroke="rgb(179,179,179)" stroke-linejoin="round" d="M 10609,5651 L 10459,5651"/>
 <path fill="none" stroke="rgb(179,179,179)" stroke-linejoin="round" d="M 10609,5387 L 10459,5387"/>
 <path fill="none" stroke="rgb(179,179,179)" stroke-linejoin="round" d="M 10609,5387 L 10459,5387"/>
 <path fill="none" stroke="rgb(179,179,179)" stroke-linejoin="round" d="M 10609,5123 L 10459,5123"/>
 <path fill="none" stroke="rgb(179,179,179)" stroke-linejoin="round" d="M 10609,5123 L 10459,5123"/>
 <path fill="none" stroke="rgb(179,179,179)" stroke-linejoin="round" d="M 10609,4859 L 10459,4859"/>
 <path fill="none" stroke="rgb(179,179,179)" stroke-linejoin="round" d="M 10609,4859 L 10459,4859"/>
 <path fill="none" stroke="rgb(179,179,179)" stroke-linejoin="round" d="M 10609,4596 L 10459,4596"/>
 <path fill="none" stroke="rgb(179,179,179)" stroke-linejoin="round" d="M 10609,4596 L 10459,4596"/>
 <path fill="none" stroke="rgb(179,179,179)" stroke-linejoin="round" d="M 10609,4333 L 10459,4333"/>
 <path fill="none" stroke="rgb(179,179,179)" stroke-linejoin="round" d="M 10609,4333 L 10459,4333"/>
 <path fill="none" stroke="rgb(179,179,179)" stroke-linejoin="round" d="M 10609,4069 L 10459,4069"/>
 <path fill="none" stroke="rgb(179,179,179)" stroke-linejoin="round" d="M 10609,4069 L 10459,4069"/>
 <path fill="none" stroke="rgb(179,179,179)" stroke-linejoin="round" d="M 10609,3805 L 10459,3805"/>
 <path fill="none" stroke="rgb(179,179,179)" stroke-linejoin="round" d="M 10609,3805 L 10459,3805"/>
 <path fill="none" stroke="rgb(179,179,179)" stroke-linejoin="round" d="M 10609,3541 L 10459,3541"/>
 <path fill="none" stroke="rgb(179,179,179)" stroke-linejoin="round" d="M 10609,3541 L 10459,3541"/>
 <path fill="none" stroke="rgb(179,179,179)" stroke-linejoin="round" d="M 10609,3278 L 10459,3278"/>
 <path fill="none" stroke="rgb(179,179,179)" stroke-linejoin="round" d="M 10609,3278 L 10459,3278"/>
 <path fill="none" stroke="rgb(179,179,179)" stroke-linejoin="round" d="M 10609,3014 L 10459,3014"/>
 <path fill="none" stroke="rgb(179,179,179)" stroke-linejoin="round" d="M 10609,3014 L 10459,3014"/>
 <path fill="none" stroke="rgb(179,179,179)" stroke-linejoin="round" d="M 10609,2750 L 10459,2750"/>
 <path fill="none" stroke="rgb(179,179,179)" stroke-linejoin="round" d="M 10609,2750 L 10459,2750"/>
 <path fill="none" stroke="rgb(179,179,179)" stroke-linejoin="round" d="M 10609,2486 L 10459,2486"/>
 <path fill="none" stroke="rgb(179,179,179)" stroke-linejoin="round" d="M 10609,2486 L 10459,2486"/>
 <path fill="none" stroke="rgb(179,179,179)" stroke-linejoin="round" d="M 10609,2222 L 10459,2222"/>
 <path fill="none" stroke="rgb(179,179,179)" stroke-linejoin="round" d="M 10609,2222 L 10459,2222"/>
 <path fill="none" stroke="rgb(179,179,179)" stroke-linejoin="round" d="M 10609,1958 L 10459,1958"/>
 <path fill="none" stroke="rgb(179,179,179)" stroke-linejoin="round" d="M 10609,1958 L 10459,1958"/>
 <path fill="none" stroke="rgb(179,179,179)" stroke-linejoin="round" d="M 10609,1695 L 10459,1695"/>
 <path fill="none" stroke="rgb(179,179,179)" stroke-linejoin="round" d="M 10609,1695 L 10459,1695"/>
 <path fill="none" stroke="rgb(179,179,179)" stroke-linejoin="round" d="M 10609,1431 L 10459,1431"/>
 <path fill="none" stroke="rgb(179,179,179)" stroke-linejoin="round" d="M 10609,1431 L 10459,1431"/>
 <path fill="none" stroke="rgb(179,179,179)" stroke-linejoin="round" d="M 10609,1167 L 10459,1167"/>
 <path fill="none" stroke="rgb(179,179,179)" stroke-linejoin="round" d="M 10609,1167 L 10459,1167"/>
 <path fill="none" stroke="rgb(179,179,179)" stroke-linejoin="round" d="M 10609,903 L 10459,903"/>
 <path fill="none" stroke="rgb(179,179,179)" stroke-linejoin="round" d="M 10609,903 L 10459,903"/>
 <path fill="none" stroke="rgb(179,179,179)" stroke-linejoin="round" d="M 10609,639 L 10459,639"/>
 <path fill="none" stroke="rgb(179,179,179)" stroke-linejoin="round" d="M 10609,639 L 10459,639"/>
 <path fill="none" stroke="rgb(179,179,179)" stroke-linejoin="round" d="M 10609,376 L 10459,376"/>
 <path fill="none" stroke="rgb(179,179,179)" stroke-linejoin="round" d="M 10609,376 L 10459,376"/>
 <path fill="none" stroke="rgb(179,179,179)" stroke-linejoin="round" d="M 10459,7762 L 10459,376"/>
 <path fill="rgb(0,69,134)" stroke="none" d="M 8778,7762 L 9898,7762 9898,7684 8778,7684 8778,7762 Z"/>
 <path fill="rgb(0,69,134)" stroke="none" d="M 6538,7762 L 7659,7762 7659,7473 6538,7473 6538,7762 Z"/>
 <path fill="rgb(0,69,134)" stroke="none" d="M 4297,7762 L 5418,7762 5418,7017 4297,7017 4297,7762 Z"/>
 <path fill="rgb(0,69,134)" stroke="none" d="M 2057,7762 L 3177,7762 3177,6799 2057,6799 2057,7762 Z"/>
 <path fill="rgb(255,66,14)" stroke="none" d="M 8778,7684 L 9898,7684 9898,7641 8778,7641 8778,7684 Z"/>
 <path fill="rgb(255,66,14)" stroke="none" d="M 6538,7473 L 7659,7473 7659,7389 6538,7389 6538,7473 Z"/>
 <path fill="rgb(255,66,14)" stroke="none" d="M 4297,7017 L 5418,7017 5418,6723 4297,6723 4297,7017 Z"/>
 <path fill="rgb(255,66,14)" stroke="none" d="M 2057,6799 L 3177,6799 3177,6493 2057,6493 2057,6799 Z"/>
 <path fill="rgb(255,211,32)" stroke="none" d="M 8778,7641 L 9898,7641 9898,7596 8778,7596 8778,7641 Z"/>
 <path fill="rgb(255,211,32)" stroke="none" d="M 6538,7389 L 7659,7389 7659,7309 6538,7309 6538,7389 Z"/>
 <path fill="rgb(255,211,32)" stroke="none" d="M 4297,6723 L 5418,6723 5418,6404 4297,6404 4297,6723 Z"/>
 <path fill="rgb(255,211,32)" stroke="none" d="M 2057,6493 L 3177,6493 3177,6149 2057,6149 2057,6493 Z"/>
 <path fill="rgb(87,157,28)" stroke="none" d="M 8778,7596 L 9898,7596 9898,7567 8778,7567 8778,7596 Z"/>
 <path fill="rgb(87,157,28)" stroke="none" d="M 6538,7309 L 7659,7309 7659,7205 6538,7205 6538,7309 Z"/>
 <path fill="rgb(87,157,28)" stroke="none" d="M 4297,6404 L 5418,6404 5418,5473 4297,5473 4297,6404 Z"/>
 <path fill="rgb(87,157,28)" stroke="none" d="M 2057,6149 L 3177,6149 3177,5163 2057,5163 2057,6149 Z"/>
 <path fill="rgb(126,0,33)" stroke="none" d="M 8778,7567 L 9898,7567 9898,7523 8778,7523 8778,7567 Z"/>
 <path fill="rgb(126,0,33)" stroke="none" d="M 6538,7205 L 7659,7205 7659,7112 6538,7112 6538,7205 Z"/>
 <path fill="rgb(126,0,33)" stroke="none" d="M 4297,5473 L 5418,5473 5418,5077 4297,5077 4297,5473 Z"/>
 <path fill="rgb(126,0,33)" stroke="none" d="M 2057,5163 L 3177,5163 3177,4752 2057,4752 2057,5163 Z"/>
 <path fill="rgb(131,202,255)" stroke="none" d="M 8778,7523 L 9898,7523 9898,7487 8778,7487 8778,7523 Z"/>
 <path fill="rgb(131,202,255)" stroke="none" d="M 6538,7112 L 7659,7112 7659,6999 6538,6999 6538,7112 Z"/>
 <path fill="rgb(131,202,255)" stroke="none" d="M 4297,5077 L 5418,5077 5418,4249 4297,4249 4297,5077 Z"/>
 <path fill="rgb(131,202,255)" stroke="none" d="M 2057,4752 L 3177,4752 3177,3918 2057,3918 2057,4752 Z"/>
 <path fill="rgb(49,64,4)" stroke="none" d="M 8778,7487 L 9898,7487 9898,7430 8778,7430 8778,7487 Z"/>
 <path fill="rgb(49,64,4)" stroke="none" d="M 6538,6999 L 7659,6999 7659,6809 6538,6809 6538,6999 Z"/>
 <path fill="rgb(49,64,4)" stroke="none" d="M 4297,4249 L 5418,4249 5418,3313 4297,3313 4297,4249 Z"/>
 <path fill="rgb(49,64,4)" stroke="none" d="M 2057,3918 L 3177,3918 3177,2974 2057,2974 2057,3918 Z"/>
 <path fill="rgb(174,207,0)" stroke="none" d="M 8778,7430 L 9898,7430 9898,7398 8778,7398 8778,7430 Z"/>
 <path fill="rgb(174,207,0)" stroke="none" d="M 6538,6809 L 7659,6809 7659,6707 6538,6707 6538,6809 Z"/>
 <path fill="rgb(174,207,0)" stroke="none" d="M 4297,3313 L 5418,3313 5418,2746 4297,2746 4297,3313 Z"/>
 <path fill="rgb(174,207,0)" stroke="none" d="M 2057,2974 L 3177,2974 3177,2398 2057,2398 2057,2974 Z"/>
 <path fill="rgb(75,31,111)" stroke="none" d="M 8778,7398 L 9898,7398 9898,7039 8778,7039 8778,7398 Z"/>
 <path fill="rgb(75,31,111)" stroke="none" d="M 6538,6707 L 7659,6707 7659,5555 6538,5555 6538,6707 Z"/>
 <path fill="rgb(75,31,111)" stroke="none" d="M 4297,2746 L 5418,2746 5418,1873 4297,1873 4297,2746 Z"/>
 <path fill="rgb(75,31,111)" stroke="none" d="M 2057,2398 L 3177,2398 3177,376 2057,376 2057,2398 Z"/>
 <path fill="rgb(255,149,14)" stroke="none" d="M 8778,7039 L 9898,7039 9898,6783 8778,6783 8778,7039 Z"/>
 <path fill="rgb(255,149,14)" stroke="none" d="M 6538,5555 L 7659,5555 7659,4652 6538,4652 6538,5555 Z"/>
 <path fill="rgb(255,149,14)" stroke="none" d="M 4297,1873 L 5418,1873 5418,1684 4297,1684 4297,1873 Z"/>
 <path fill="rgb(197,0,11)" stroke="none" d="M 8778,6783 L 9898,6783 9898,6525 8778,6525 8778,6783 Z"/>
 <path fill="rgb(197,0,11)" stroke="none" d="M 6538,4652 L 7659,4652 7659,3847 6538,3847 6538,4652 Z"/>
 <path fill="rgb(197,0,11)" stroke="none" d="M 4297,1684 L 5418,1684 5418,692 4297,692 4297,1684 Z"/>
 <path fill="none" stroke="rgb(0,132,209)" stroke-width="80" stroke-linejoin="round" d="M 2617,2626 L 4858,5994 7098,6783 9338,7452"/>
 <text class="TextShape"><tspan class="TextParagraph" font-family="Liberation Sans, sans-serif" font-size="353px" font-weight="400"><tspan class="TextPosition" x="2088" y="8330"><tspan fill="rgb(0,0,0)" stroke="none">Zynq7</tspan></tspan></tspan><tspan class="TextParagraph" font-family="Liberation Sans, sans-serif" font-size="353px" font-weight="400"><tspan class="TextPosition" x="2088" y="8727"><tspan fill="rgb(0,0,0)" stroke="none">(woPL)</tspan></tspan></tspan></text>
 <text class="TextShape"><tspan class="TextParagraph" font-family="Liberation Sans, sans-serif" font-size="353px" font-weight="400"><tspan class="TextPosition" x="4381" y="8330"><tspan fill="rgb(0,0,0)" stroke="none">Zynq7</tspan></tspan></tspan><tspan class="TextParagraph" font-family="Liberation Sans, sans-serif" font-size="353px" font-weight="400"><tspan class="TextPosition" x="4381" y="8727"><tspan fill="rgb(0,0,0)" stroke="none">(wPL)</tspan></tspan></tspan></text>
 <text class="TextShape"><tspan class="TextParagraph" font-family="Liberation Sans, sans-serif" font-size="353px" font-weight="400"><tspan class="TextPosition" x="6516" y="8330"><tspan fill="rgb(0,0,0)" stroke="none">Celeron</tspan></tspan></tspan><tspan class="TextParagraph" font-family="Liberation Sans, sans-serif" font-size="353px" font-weight="400"><tspan class="TextPosition" x="6516" y="8727"><tspan fill="rgb(0,0,0)" stroke="none">N3450</tspan></tspan></tspan></text>
 <text class="TextShape"><tspan class="TextParagraph" font-family="Liberation Sans, sans-serif" font-size="353px" font-weight="400"><tspan class="TextPosition" x="8796" y="8330"><tspan fill="rgb(0,0,0)" stroke="none">Core i5</tspan></tspan></tspan><tspan class="TextParagraph" font-family="Liberation Sans, sans-serif" font-size="353px" font-weight="400"><tspan class="TextPosition" x="8796" y="8727"><tspan fill="rgb(0,0,0)" stroke="none">8400</tspan></tspan></tspan></text>
 <text class="TextShape"><tspan class="TextParagraph" font-family="Liberation Sans, sans-serif" font-size="353px" font-weight="400"><tspan class="TextPosition" x="1062" y="7883"><tspan fill="rgb(0,0,0)" stroke="none">0</tspan></tspan></tspan></text>
 <text class="TextShape"><tspan class="TextParagraph" font-family="Liberation Sans, sans-serif" font-size="353px" font-weight="400"><tspan class="TextPosition" x="506" y="6827"><tspan fill="rgb(0,0,0)" stroke="none">5000</tspan></tspan></tspan></text>
 <text class="TextShape"><tspan class="TextParagraph" font-family="Liberation Sans, sans-serif" font-size="353px" font-weight="400"><tspan class="TextPosition" x="321" y="5772"><tspan fill="rgb(0,0,0)" stroke="none">10000</tspan></tspan></tspan></text>
 <text class="TextShape"><tspan class="TextParagraph" font-family="Liberation Sans, sans-serif" font-size="353px" font-weight="400"><tspan class="TextPosition" x="321" y="4717"><tspan fill="rgb(0,0,0)" stroke="none">15000</tspan></tspan></tspan></text>
 <text class="TextShape"><tspan class="TextParagraph" font-family="Liberation Sans, sans-serif" font-size="353px" font-weight="400"><tspan class="TextPosition" x="321" y="3661"><tspan fill="rgb(0,0,0)" stroke="none">20000</tspan></tspan></tspan></text>
 <text class="TextShape"><tspan class="TextParagraph" font-family="Liberation Sans, sans-serif" font-size="353px" font-weight="400"><tspan class="TextPosition" x="321" y="2606"><tspan fill="rgb(0,0,0)" stroke="none">25000</tspan></tspan></tspan></text>
 <text class="TextShape"><tspan class="TextParagraph" font-family="Liberation Sans, sans-serif" font-size="353px" font-weight="400"><tspan class="TextPosition" x="321" y="1551"><tspan fill="rgb(0,0,0)" stroke="none">30000</tspan></tspan></tspan></text>
 <text class="TextShape"><tspan class="TextParagraph" font-family="Liberation Sans, sans-serif" font-size="353px" font-weight="400"><tspan class="TextPosition" x="321" y="496"><tspan fill="rgb(0,0,0)" stroke="none">35000</tspan></tspan></tspan></text>
 <text class="TextShape"><tspan class="TextParagraph" font-family="Liberation Sans, sans-serif" font-size="353px" font-weight="400"><tspan class="TextPosition" x="10709" y="7883"><tspan fill="rgb(0,0,0)" stroke="none">0</tspan></tspan></tspan></text>
 <text class="TextShape"><tspan class="TextParagraph" font-family="Liberation Sans, sans-serif" font-size="353px" font-weight="400"><tspan class="TextPosition" x="10709" y="7355"><tspan fill="rgb(0,0,0)" stroke="none">10000</tspan></tspan></tspan></text>
 <text class="TextShape"><tspan class="TextParagraph" font-family="Liberation Sans, sans-serif" font-size="353px" font-weight="400"><tspan class="TextPosition" x="10709" y="6827"><tspan fill="rgb(0,0,0)" stroke="none">20000</tspan></tspan></tspan></text>
 <text class="TextShape"><tspan class="TextParagraph" font-family="Liberation Sans, sans-serif" font-size="353px" font-weight="400"><tspan class="TextPosition" x="10709" y="6300"><tspan fill="rgb(0,0,0)" stroke="none">30000</tspan></tspan></tspan></text>
 <text class="TextShape"><tspan class="TextParagraph" font-family="Liberation Sans, sans-serif" font-size="353px" font-weight="400"><tspan class="TextPosition" x="10709" y="5772"><tspan fill="rgb(0,0,0)" stroke="none">40000</tspan></tspan></tspan></text>
 <text class="TextShape"><tspan class="TextParagraph" font-family="Liberation Sans, sans-serif" font-size="353px" font-weight="400"><tspan class="TextPosition" x="10709" y="5244"><tspan fill="rgb(0,0,0)" stroke="none">50000</tspan></tspan></tspan></text>
 <text class="TextShape"><tspan class="TextParagraph" font-family="Liberation Sans, sans-serif" font-size="353px" font-weight="400"><tspan class="TextPosition" x="10709" y="4717"><tspan fill="rgb(0,0,0)" stroke="none">60000</tspan></tspan></tspan></text>
 <text class="TextShape"><tspan class="TextParagraph" font-family="Liberation Sans, sans-serif" font-size="353px" font-weight="400"><tspan class="TextPosition" x="10709" y="4189"><tspan fill="rgb(0,0,0)" stroke="none">70000</tspan></tspan></tspan></text>
 <text class="TextShape"><tspan class="TextParagraph" font-family="Liberation Sans, sans-serif" font-size="353px" font-weight="400"><tspan class="TextPosition" x="10709" y="3661"><tspan fill="rgb(0,0,0)" stroke="none">80000</tspan></tspan></tspan></text>
 <text class="TextShape"><tspan class="TextParagraph" font-family="Liberation Sans, sans-serif" font-size="353px" font-weight="400"><tspan class="TextPosition" x="10709" y="3134"><tspan fill="rgb(0,0,0)" stroke="none">90000</tspan></tspan></tspan></text>
 <text class="TextShape"><tspan class="TextParagraph" font-family="Liberation Sans, sans-serif" font-size="353px" font-weight="400"><tspan class="TextPosition" x="10709" y="2606"><tspan fill="rgb(0,0,0)" stroke="none">100000</tspan></tspan></tspan></text>
 <text class="TextShape"><tspan class="TextParagraph" font-family="Liberation Sans, sans-serif" font-size="353px" font-weight="400"><tspan class="TextPosition" x="10709" y="2078"><tspan fill="rgb(0,0,0)" stroke="none">110000</tspan></tspan></tspan></text>
 <text class="TextShape"><tspan class="TextParagraph" font-family="Liberation Sans, sans-serif" font-size="353px" font-weight="400"><tspan class="TextPosition" x="10709" y="1551"><tspan fill="rgb(0,0,0)" stroke="none">120000</tspan></tspan></tspan></text>
 <text class="TextShape"><tspan class="TextParagraph" font-family="Liberation Sans, sans-serif" font-size="353px" font-weight="400"><tspan class="TextPosition" x="10709" y="1023"><tspan fill="rgb(0,0,0)" stroke="none">130000</tspan></tspan></tspan></text>
 <text class="TextShape"><tspan class="TextParagraph" font-family="Liberation Sans, sans-serif" font-size="353px" font-weight="400"><tspan class="TextPosition" x="10709" y="496"><tspan fill="rgb(0,0,0)" stroke="none">140000</tspan></tspan></tspan></text>
 <path fill="rgb(0,69,134)" stroke="none" d="M 12658,6838 L 12258,6838 12258,6627 13058,6627 13058,6838 12658,6838 Z"/>
 <path fill="rgb(255,66,14)" stroke="none" d="M 12658,6340 L 12258,6340 12258,6129 13058,6129 13058,6340 12658,6340 Z"/>
 <path fill="rgb(255,211,32)" stroke="none" d="M 12658,5842 L 12258,5842 12258,5631 13058,5631 13058,5842 12658,5842 Z"/>
 <path fill="rgb(87,157,28)" stroke="none" d="M 12658,5344 L 12258,5344 12258,5133 13058,5133 13058,5344 12658,5344 Z"/>
 <path fill="rgb(126,0,33)" stroke="none" d="M 12658,4846 L 12258,4846 12258,4635 13058,4635 13058,4846 12658,4846 Z"/>
 <path fill="rgb(131,202,255)" stroke="none" d="M 12658,4349 L 12258,4349 12258,4138 13058,4138 13058,4349 12658,4349 Z"/>
 <path fill="rgb(49,64,4)" stroke="none" d="M 12658,3851 L 12258,3851 12258,3640 13058,3640 13058,3851 12658,3851 Z"/>
 <path fill="rgb(174,207,0)" stroke="none" d="M 12658,3353 L 12258,3353 12258,3142 13058,3142 13058,3353 12658,3353 Z"/>
 <path fill="rgb(75,31,111)" stroke="none" d="M 12658,2855 L 12258,2855 12258,2644 13058,2644 13058,2855 12658,2855 Z"/>
 <path fill="rgb(255,149,14)" stroke="none" d="M 12658,2357 L 12258,2357 12258,2146 13058,2146 13058,2357 12658,2357 Z"/>
 <path fill="rgb(197,0,11)" stroke="none" d="M 12658,1859 L 12258,1859 12258,1648 13058,1648 13058,1859 12658,1859 Z"/>
 <path fill="none" stroke="rgb(0,132,209)" stroke-width="80" stroke-linejoin="round" d="M 12258,7230 L 13058,7230"/>
 <text class="TextShape"><tspan class="TextParagraph" font-family="Liberation Sans, sans-serif" font-size="353px" font-weight="400"><tspan class="TextPosition" x="13158" y="1873"><tspan fill="rgb(0,0,0)" stroke="none">conv d param</tspan></tspan></tspan></text>
 <text class="TextShape"><tspan class="TextParagraph" font-family="Liberation Sans, sans-serif" font-size="353px" font-weight="400"><tspan class="TextPosition" x="13158" y="2371"><tspan fill="rgb(0,0,0)" stroke="none">conv back</tspan></tspan></tspan></text>
 <text class="TextShape"><tspan class="TextParagraph" font-family="Liberation Sans, sans-serif" font-size="353px" font-weight="400"><tspan class="TextPosition" x="13158" y="2869"><tspan fill="rgb(0,0,0)" stroke="none">conv forward</tspan></tspan></tspan></text>
 <text class="TextShape"><tspan class="TextParagraph" font-family="Liberation Sans, sans-serif" font-size="353px" font-weight="400"><tspan class="TextPosition" x="13158" y="3367"><tspan fill="rgb(0,0,0)" stroke="none">dwconv d param</tspan></tspan></tspan></text>
 <text class="TextShape"><tspan class="TextParagraph" font-family="Liberation Sans, sans-serif" font-size="353px" font-weight="400"><tspan class="TextPosition" x="13158" y="3865"><tspan fill="rgb(0,0,0)" stroke="none">dwconv back</tspan></tspan></tspan></text>
 <text class="TextShape"><tspan class="TextParagraph" font-family="Liberation Sans, sans-serif" font-size="353px" font-weight="400"><tspan class="TextPosition" x="13158" y="4363"><tspan fill="rgb(0,0,0)" stroke="none">dwconv forward</tspan></tspan></tspan></text>
 <text class="TextShape"><tspan class="TextParagraph" font-family="Liberation Sans, sans-serif" font-size="353px" font-weight="400"><tspan class="TextPosition" x="13158" y="4860"><tspan fill="rgb(0,0,0)" stroke="none">pool back</tspan></tspan></tspan></text>
 <text class="TextShape"><tspan class="TextParagraph" font-family="Liberation Sans, sans-serif" font-size="353px" font-weight="400"><tspan class="TextPosition" x="13158" y="5358"><tspan fill="rgb(0,0,0)" stroke="none">pool forward</tspan></tspan></tspan></text>
 <text class="TextShape"><tspan class="TextParagraph" font-family="Liberation Sans, sans-serif" font-size="353px" font-weight="400"><tspan class="TextPosition" x="13158" y="5856"><tspan fill="rgb(0,0,0)" stroke="none">activ back</tspan></tspan></tspan></text>
 <text class="TextShape"><tspan class="TextParagraph" font-family="Liberation Sans, sans-serif" font-size="353px" font-weight="400"><tspan class="TextPosition" x="13158" y="6354"><tspan fill="rgb(0,0,0)" stroke="none">activ forward</tspan></tspan></tspan></text>
 <text class="TextShape"><tspan class="TextParagraph" font-family="Liberation Sans, sans-serif" font-size="353px" font-weight="400"><tspan class="TextPosition" x="13158" y="6852"><tspan fill="rgb(0,0,0)" stroke="none">other</tspan></tspan></tspan></text>
 <text class="TextShape"><tspan class="TextParagraph" font-family="Liberation Sans, sans-serif" font-size="353px" font-weight="400"><tspan class="TextPosition" x="13158" y="7350"><tspan fill="rgb(0,0,0)" stroke="none">total</tspan></tspan></tspan></text>
</svg>