<?xml version="1.0" encoding="UTF-8"?>
<!DOCTYPE svg PUBLIC "-//W3C//DTD SVG 1.1//EN" "http://www.w3.org/Graphics/SVG/1.1/DTD/svg11.dtd">
<svg width="160mm" height="90mm" viewBox="0 0 16000 9000" version="1.1" xmlns="http://www.w3.org/2000/svg" xmlns:xlink="http://www.w3.org/1999/xlink" stroke-width="28.222" stroke-linejoin="round" xml:space="preserve">
 <path fill="rgb(255,255,255)" stroke="none" d="M 8000,8986 L 0,8986 0,-1 16000,-1 16000,8986 8000,8986 Z"/>
 <path fill="none" stroke="rgb(179,179,179)" stroke-linejoin="round" d="M 5978,7763 L 1497,7763 1497,377 10459,377 10459,7763 5978,7763 Z"/>
 <path fill="none" stroke="rgb(179,179,179)" stroke-linejoin="round" d="M 10459,7762 L 1497,7762"/>
 <path fill="none" stroke="rgb(179,179,179)" stroke-linejoin="round" d="M 10459,6530 L 1497,6530"/>
 <path fill="none" stroke="rgb(179,179,179)" stroke-linejoin="round" d="M 10459,5299 L 1497,5299"/>
 <path fill="none" stroke="rgb(179,179,179)" stroke-linejoin="round" d="M 10459,4069 L 1497,4069"/>
 <path fill="none" stroke="rgb(179,179,179)" stroke-linejoin="round" d="M 10459,2838 L 1497,2838"/>
 <path fill="none" stroke="rgb(179,179,179)" stroke-linejoin="round" d="M 10459,1607 L 1497,1607"/>
 <path fill="none" stroke="rgb(179,179,179)" stroke-linejoin="round" d="M 10459,376 L 1497,376"/>
 <path fill="none" stroke="rgb(179,179,179)" stroke-linejoin="round" d="M 1497,7912 L 1497,7762"/>
 <path fill="none" stroke="rgb(179,179,179)" stroke-linejoin="round" d="M 1497,7912 L 1497,7762"/>
 <path fill="none" stroke="rgb(179,179,179)" stroke-linejoin="round" d="M 3737,7912 L 3737,7762"/>
 <path fill="none" stroke="rgb(179,179,179)" stroke-linejoin="round" d="M 3737,7912 L 3737,7762"/>
 <path fill="none" stroke="rgb(179,179,179)" stroke-linejoin="round" d="M 5978,7912 L 5978,7762"/>
 <path fill="none" stroke="rgb(179,179,179)" stroke-linejoin="round" d="M 5978,7912 L 5978,7762"/>
 <path fill="none" stroke="rgb(179,179,179)" stroke-linejoin="round" d="M 8218,7912 L 8218,7762"/>
 <path fill="none" stroke="rgb(179,179,179)" stroke-linejoin="round" d="M 8218,7912 L 8218,7762"/>
 <path fill="none" stroke="rgb(179,179,179)" stroke-linejoin="round" d="M 10459,7912 L 10459,7762"/>
 <path fill="none" stroke="rgb(179,179,179)" stroke-linejoin="round" d="M 10459,7912 L 10459,7762"/>
 <path fill="none" stroke="rgb(179,179,179)" stroke-linejoin="round" d="M 1497,7762 L 10459,7762"/>
 <path fill="none" stroke="rgb(179,179,179)" stroke-linejoin="round" d="M 1347,7762 L 1497,7762"/>
 <path fill="none" stroke="rgb(179,179,179)" stroke-linejoin="round" d="M 1347,7762 L 1497,7762"/>
 <path fill="none" stroke="rgb(179,179,179)" stroke-linejoin="round" d="M 1347,6530 L 1497,6530"/>
 <path fill="none" stroke="rgb(179,179,179)" stroke-linejoin="round" d="M 1347,6530 L 1497,6530"/>
 <path fill="none" stroke="rgb(179,179,179)" stroke-linejoin="round" d="M 1347,5299 L 1497,5299"/>
 <path fill="none" stroke="rgb(179,179,179)" stroke-linejoin="round" d="M 1347,5299 L 1497,5299"/>
 <path fill="none" stroke="rgb(179,179,179)" stroke-linejoin="round" d="M 1347,4069 L 1497,4069"/>
 <path fill="none" stroke="rgb(179,179,179)" stroke-linejoin="round" d="M 1347,4069 L 1497,4069"/>
 <path fill="none" stroke="rgb(179,179,179)" stroke-linejoin="round" d="M 1347,2838 L 1497,2838"/>
 <path fill="none" stroke="rgb(179,179,179)" stroke-linejoin="round" d="M 1347,2838 L 1497,2838"/>
 <path fill="none" stroke="rgb(179,179,179)" stroke-linejoin="round" d="M 1347,1607 L 1497,1607"/>
 <path fill="none" stroke="rgb(179,179,179)" stroke-linejoin="round" d="M 1347,1607 L 1497,1607"/>
 <path fill="none" stroke="rgb(179,179,179)" stroke-linejoin="round" d="M 1347,376 L 1497,376"/>
 <path fill="none" stroke="rgb(179,179,179)" stroke-linejoin="round" d="M 1347,376 L 1497,376"/>
 <path fill="none" stroke="rgb(179,179,179)" stroke-linejoin="round" d="M 1497,7762 L 1497,376"/>
 <path fill="none" stroke="rgb(179,179,179)" stroke-linejoin="round" d="M 10609,7762 L 10459,7762"/>
 <path fill="none" stroke="rgb(179,179,179)" stroke-linejoin="round" d="M 10609,7762 L 10459,7762"/>
 <path fill="none" stroke="rgb(179,179,179)" stroke-linejoin="round" d="M 10609,6530 L 10459,6530"/>
 <path fill="none" stroke="rgb(179,179,179)" stroke-linejoin="round" d="M 10609,6530 L 10459,6530"/>
 <path fill="none" stroke="rgb(179,179,179)" stroke-linejoin="round" d="M 10609,5299 L 10459,5299"/>
 <path fill="none" stroke="rgb(179,179,179)" stroke-linejoin="round" d="M 10609,5299 L 10459,5299"/>
 <path fill="none" stroke="rgb(179,179,179)" stroke-linejoin="round" d="M 10609,4069 L 10459,4069"/>
 <path fill="none" stroke="rgb(179,179,179)" stroke-linejoin="round" d="M 10609,4069 L 10459,4069"/>
 <path fill="none" stroke="rgb(179,179,179)" stroke-linejoin="round" d="M 10609,2838 L 10459,2838"/>
 <path fill="none" stroke="rgb(179,179,179)" stroke-linejoin="round" d="M 10609,2838 L 10459,2838"/>
 <path fill="none" stroke="rgb(179,179,179)" stroke-linejoin="round" d="M 10609,1607 L 10459,1607"/>
 <path fill="none" stroke="rgb(179,179,179)" stroke-linejoin="round" d="M 10609,1607 L 10459,1607"/>
 <path fill="none" stroke="rgb(179,179,179)" stroke-linejoin="round" d="M 10609,376 L 10459,376"/>
 <path fill="none" stroke="rgb(179,179,179)" stroke-linejoin="round" d="M 10609,376 L 10459,376"/>
 <path fill="none" stroke="rgb(179,179,179)" stroke-linejoin="round" d="M 10459,7762 L 10459,376"/>
 <path fill="rgb(0,69,134)" stroke="none" d="M 8778,7762 L 9898,7762 9898,7671 8778,7671 8778,7762 Z"/>
 <path fill="rgb(0,69,134)" stroke="none" d="M 6538,7762 L 7659,7762 7659,7425 6538,7425 6538,7762 Z"/>
 <path fill="rgb(0,69,134)" stroke="none" d="M 4297,7762 L 5418,7762 5418,6877 4297,6877 4297,7762 Z"/>
 <path fill="rgb(0,69,134)" stroke="none" d="M 2057,7762 L 3177,7762 3177,6638 2057,6638 2057,7762 Z"/>
 <path fill="rgb(255,66,14)" stroke="none" d="M 8778,7671 L 9898,7671 9898,7621 8778,7621 8778,7671 Z"/>
 <path fill="rgb(255,66,14)" stroke="none" d="M 6538,7425 L 7659,7425 7659,7327 6538,7327 6538,7425 Z"/>
 <path fill="rgb(255,66,14)" stroke="none" d="M 4297,6877 L 5418,6877 5418,6509 4297,6509 4297,6877 Z"/>
 <path fill="rgb(255,66,14)" stroke="none" d="M 2057,6638 L 3177,6638 3177,6282 2057,6282 2057,6638 Z"/>
 <path fill="rgb(255,211,32)" stroke="none" d="M 8778,7621 L 9898,7621 9898,7569 8778,7569 8778,7621 Z"/>
 <path fill="rgb(255,211,32)" stroke="none" d="M 6538,7327 L 7659,7327 7659,7233 6538,7233 6538,7327 Z"/>
 <path fill="rgb(255,211,32)" stroke="none" d="M 4297,6509 L 5418,6509 5418,6124 4297,6124 4297,6509 Z"/>
 <path fill="rgb(255,211,32)" stroke="none" d="M 2057,6282 L 3177,6282 3177,5881 2057,5881 2057,6282 Z"/>
 <path fill="rgb(87,157,28)" stroke="none" d="M 8778,7569 L 9898,7569 9898,7535 8778,7535 8778,7569 Z"/>
 <path fill="rgb(87,157,28)" stroke="none" d="M 6538,7233 L 7659,7233 7659,7113 6538,7113 6538,7233 Z"/>
 <path fill="rgb(87,157,28)" stroke="none" d="M 4297,6124 L 5418,6124 5418,5722 4297,5722 4297,6124 Z"/>
 <path fill="rgb(87,157,28)" stroke="none" d="M 2057,5881 L 3177,5881 3177,4729 2057,4729 2057,5881 Z"/>
 <path fill="rgb(126,0,33)" stroke="none" d="M 8778,7535 L 9898,7535 9898,7484 8778,7484 8778,7535 Z"/>
 <path fill="rgb(126,0,33)" stroke="none" d="M 6538,7113 L 7659,7113 7659,7004 6538,7004 6538,7113 Z"/>
 <path fill="rgb(126,0,33)" stroke="none" d="M 4297,5722 L 5418,5722 5418,5610 4297,5610 4297,5722 Z"/>
 <path fill="rgb(126,0,33)" stroke="none" d="M 2057,4729 L 3177,4729 3177,4252 2057,4252 2057,4729 Z"/>
 <path fill="rgb(131,202,255)" stroke="none" d="M 8778,7484 L 9898,7484 9898,7441 8778,7441 8778,7484 Z"/>
 <path fill="rgb(131,202,255)" stroke="none" d="M 6538,7004 L 7659,7004 7659,6872 6538,6872 6538,7004 Z"/>
 <path fill="rgb(131,202,255)" stroke="none" d="M 4297,5610 L 5418,5610 5418,4632 4297,4632 4297,5610 Z"/>
 <path fill="rgb(131,202,255)" stroke="none" d="M 2057,4252 L 3177,4252 3177,3277 2057,3277 2057,4252 Z"/>
 <path fill="rgb(49,64,4)" stroke="none" d="M 8778,7441 L 9898,7441 9898,7374 8778,7374 8778,7441 Z"/>
 <path fill="rgb(49,64,4)" stroke="none" d="M 6538,6872 L 7659,6872 7659,6651 6538,6651 6538,6872 Z"/>
 <path fill="rgb(49,64,4)" stroke="none" d="M 4297,4632 L 5418,4632 5418,3531 4297,3531 4297,4632 Z"/>
 <path fill="rgb(49,64,4)" stroke="none" d="M 2057,3277 L 3177,3277 3177,2176 2057,2176 2057,3277 Z"/>
 <path fill="rgb(174,207,0)" stroke="none" d="M 8778,7374 L 9898,7374 9898,7338 8778,7338 8778,7374 Z"/>
 <path fill="rgb(174,207,0)" stroke="none" d="M 6538,6651 L 7659,6651 7659,6531 6538,6531 6538,6651 Z"/>
 <path fill="rgb(174,207,0)" stroke="none" d="M 4297,3531 L 5418,3531 5418,2855 4297,2855 4297,3531 Z"/>
 <path fill="rgb(174,207,0)" stroke="none" d="M 2057,2176 L 3177,2176 3177,1503 2057,1503 2057,2176 Z"/>
 <path fill="rgb(75,31,111)" stroke="none" d="M 8778,7338 L 9898,7338 9898,6919 8778,6919 8778,7338 Z"/>
 <path fill="rgb(75,31,111)" stroke="none" d="M 6538,6531 L 7659,6531 7659,5187 6538,5187 6538,6531 Z"/>
 <path fill="rgb(75,31,111)" stroke="none" d="M 4297,2855 L 5418,2855 5418,1837 4297,1837 4297,2855 Z"/>
 <path fill="rgb(75,31,111)" stroke="none" d="M 2057,1503 L 3177,1503 3177,376 2057,376 2057,1503 Z"/>
 <path fill="rgb(255,149,14)" stroke="none" d="M 8778,6919 L 9898,6919 9898,6619 8778,6619 8778,6919 Z"/>
 <path fill="rgb(255,149,14)" stroke="none" d="M 6538,5187 L 7659,5187 7659,4135 6538,4135 6538,5187 Z"/>
 <path fill="rgb(255,149,14)" stroke="none" d="M 4297,1837 L 5418,1837 5418,1616 4297,1616 4297,1837 Z"/>
 <path fill="rgb(197,0,11)" stroke="none" d="M 8778,6619 L 9898,6619 9898,6319 8778,6319 8778,6619 Z"/>
 <path fill="rgb(197,0,11)" stroke="none" d="M 6538,4135 L 7659,4135 7659,3195 6538,3195 6538,4135 Z"/>
 <path fill="rgb(197,0,11)" stroke="none" d="M 4297,1616 L 5418,1616 5418,454 4297,454 4297,1616 Z"/>
 <path fill="none" stroke="rgb(0,132,209)" stroke-width="80" stroke-linejoin="round" d="M 2617,1770 L 4858,5934 7098,6620 9338,7401"/>
 <text class="TextShape"><tspan class="TextParagraph" font-family="Liberation Sans, sans-serif" font-size="353px" font-weight="400"><tspan class="TextPosition" x="2088" y="8330"><tspan fill="rgb(0,0,0)" stroke="none">Zynq7</tspan></tspan></tspan><tspan class="TextParagraph" font-family="Liberation Sans, sans-serif" font-size="353px" font-weight="400"><tspan class="TextPosition" x="2088" y="8727"><tspan fill="rgb(0,0,0)" stroke="none">(woPL)</tspan></tspan></tspan></text>
 <text class="TextShape"><tspan class="TextParagraph" font-family="Liberation Sans, sans-serif" font-size="353px" font-weight="400"><tspan class="TextPosition" x="4381" y="8330"><tspan fill="rgb(0,0,0)" stroke="none">Zynq7</tspan></tspan></tspan><tspan class="TextParagraph" font-family="Liberation Sans, sans-serif" font-size="353px" font-weight="400"><tspan class="TextPosition" x="4381" y="8727"><tspan fill="rgb(0,0,0)" stroke="none">(wPL)</tspan></tspan></tspan></text>
 <text class="TextShape"><tspan class="TextParagraph" font-family="Liberation Sans, sans-serif" font-size="353px" font-weight="400"><tspan class="TextPosition" x="6516" y="8330"><tspan fill="rgb(0,0,0)" stroke="none">Celeron</tspan></tspan></tspan><tspan class="TextParagraph" font-family="Liberation Sans, sans-serif" font-size="353px" font-weight="400"><tspan class="TextPosition" x="6516" y="8727"><tspan fill="rgb(0,0,0)" stroke="none">N3450</tspan></tspan></tspan></text>
 <text class="TextShape"><tspan class="TextParagraph" font-family="Liberation Sans, sans-serif" font-size="353px" font-weight="400"><tspan class="TextPosition" x="8796" y="8330"><tspan fill="rgb(0,0,0)" stroke="none">Core i5</tspan></tspan></tspan><tspan class="TextParagraph" font-family="Liberation Sans, sans-serif" font-size="353px" font-weight="400"><tspan class="TextPosition" x="8796" y="8727"><tspan fill="rgb(0,0,0)" stroke="none">8400</tspan></tspan></tspan></text>
 <text class="TextShape"><tspan class="TextParagraph" font-family="Liberation Sans, sans-serif" font-size="353px" font-weight="400"><tspan class="TextPosition" x="1062" y="7883"><tspan fill="rgb(0,0,0)" stroke="none">0</tspan></tspan></tspan></text>
 <text class="TextShape"><tspan class="TextParagraph" font-family="Liberation Sans, sans-serif" font-size="353px" font-weight="400"><tspan class="TextPosition" x="506" y="6651"><tspan fill="rgb(0,0,0)" stroke="none">5000</tspan></tspan></tspan></text>
 <text class="TextShape"><tspan class="TextParagraph" font-family="Liberation Sans, sans-serif" font-size="353px" font-weight="400"><tspan class="TextPosition" x="321" y="5420"><tspan fill="rgb(0,0,0)" stroke="none">10000</tspan></tspan></tspan></text>
 <text class="TextShape"><tspan class="TextParagraph" font-family="Liberation Sans, sans-serif" font-size="353px" font-weight="400"><tspan class="TextPosition" x="321" y="4189"><tspan fill="rgb(0,0,0)" stroke="none">15000</tspan></tspan></tspan></text>
 <text class="TextShape"><tspan class="TextParagraph" font-family="Liberation Sans, sans-serif" font-size="353px" font-weight="400"><tspan class="TextPosition" x="321" y="2958"><tspan fill="rgb(0,0,0)" stroke="none">20000</tspan></tspan></tspan></text>
 <text class="TextShape"><tspan class="TextParagraph" font-family="Liberation Sans, sans-serif" font-size="353px" font-weight="400"><tspan class="TextPosition" x="321" y="1727"><tspan fill="rgb(0,0,0)" stroke="none">25000</tspan></tspan></tspan></text>
 <text class="TextShape"><tspan class="TextParagraph" font-family="Liberation Sans, sans-serif" font-size="353px" font-weight="400"><tspan class="TextPosition" x="321" y="496"><tspan fill="rgb(0,0,0)" stroke="none">30000</tspan></tspan></tspan></text>
 <text class="TextShape"><tspan class="TextParagraph" font-family="Liberation Sans, sans-serif" font-size="353px" font-weight="400"><tspan class="TextPosition" x="10709" y="7883"><tspan fill="rgb(0,0,0)" stroke="none">0</tspan></tspan></tspan></text>
 <text class="TextShape"><tspan class="TextParagraph" font-family="Liberation Sans, sans-serif" font-size="353px" font-weight="400"><tspan class="TextPosition" x="10709" y="6651"><tspan fill="rgb(0,0,0)" stroke="none">20000</tspan></tspan></tspan></text>
 <text class="TextShape"><tspan class="TextParagraph" font-family="Liberation Sans, sans-serif" font-size="353px" font-weight="400"><tspan class="TextPosition" x="10709" y="5420"><tspan fill="rgb(0,0,0)" stroke="none">40000</tspan></tspan></tspan></text>
 <text class="TextShape"><tspan class="TextParagraph" font-family="Liberation Sans, sans-serif" font-size="353px" font-weight="400"><tspan class="TextPosition" x="10709" y="4189"><tspan fill="rgb(0,0,0)" stroke="none">60000</tspan></tspan></tspan></text>
 <text class="TextShape"><tspan class="TextParagraph" font-family="Liberation Sans, sans-serif" font-size="353px" font-weight="400"><tspan class="TextPosition" x="10709" y="2958"><tspan fill="rgb(0,0,0)" stroke="none">80000</tspan></tspan></tspan></text>
 <text class="TextShape"><tspan class="TextParagraph" font-family="Liberation Sans, sans-serif" font-size="353px" font-weight="400"><tspan class="TextPosition" x="10709" y="1727"><tspan fill="rgb(0,0,0)" stroke="none">100000</tspan></tspan></tspan></text>
 <text class="TextShape"><tspan class="TextParagraph" font-family="Liberation Sans, sans-serif" font-size="353px" font-weight="400"><tspan class="TextPosition" x="10709" y="496"><tspan fill="rgb(0,0,0)" stroke="none">120000</tspan></tspan></tspan></text>
 <path fill="rgb(0,69,134)" stroke="none" d="M 12658,6838 L 12258,6838 12258,6627 13058,6627 13058,6838 12658,6838 Z"/>
 <path fill="rgb(255,66,14)" stroke="none" d="M 12658,6340 L 12258,6340 12258,6129 13058,6129 13058,6340 12658,6340 Z"/>
 <path fill="rgb(255,211,32)" stroke="none" d="M 12658,5842 L 12258,5842 12258,5631 13058,5631 13058,5842 12658,5842 Z"/>
 <path fill="rgb(87,157,28)" stroke="none" d="M 12658,5344 L 12258,5344 12258,5133 13058,5133 13058,5344 12658,5344 Z"/>
 <path fill="rgb(126,0,33)" stroke="none" d="M 12658,4846 L 12258,4846 12258,4635 13058,4635 13058,4846 12658,4846 Z"/>
 <path fill="rgb(131,202,255)" stroke="none" d="M 12658,4349 L 12258,4349 12258,4138 13058,4138 13058,4349 12658,4349 Z"/>
 <path fill="rgb(49,64,4)" stroke="none" d="M 12658,3851 L 12258,3851 12258,3640 13058,3640 13058,3851 12658,3851 Z"/>
 <path fill="rgb(174,207,0)" stroke="none" d="M 12658,3353 L 12258,3353 12258,3142 13058,3142 13058,3353 12658,3353 Z"/>
 <path fill="rgb(75,31,111)" stroke="none" d="M 12658,2855 L 12258,2855 12258,2644 13058,2644 13058,2855 12658,2855 Z"/>
 <path fill="rgb(255,149,14)" stroke="none" d="M 12658,2357 L 12258,2357 12258,2146 13058,2146 13058,2357 12658,2357 Z"/>
 <path fill="rgb(197,0,11)" stroke="none" d="M 12658,1859 L 12258,1859 12258,1648 13058,1648 13058,1859 12658,1859 Z"/>
 <path fill="none" stroke="rgb(0,132,209)" stroke-width="80" stroke-linejoin="round" d="M 12258,7230 L 13058,7230"/>
 <text class="TextShape"><tspan class="TextParagraph" font-family="Liberation Sans, sans-serif" font-size="353px" font-weight="400"><tspan class="TextPosition" x="13158" y="1873"><tspan fill="rgb(0,0,0)" stroke="none">conv d param</tspan></tspan></tspan></text>
 <text class="TextShape"><tspan class="TextParagraph" font-family="Liberation Sans, sans-serif" font-size="353px" font-weight="400"><tspan class="TextPosition" x="13158" y="2371"><tspan fill="rgb(0,0,0)" stroke="none">conv back</tspan></tspan></tspan></text>
 <text class="TextShape"><tspan class="TextParagraph" font-family="Liberation Sans, sans-serif" font-size="353px" font-weight="400"><tspan class="TextPosition" x="13158" y="2869"><tspan fill="rgb(0,0,0)" stroke="none">conv forward</tspan></tspan></tspan></text>
 <text class="TextShape"><tspan class="TextParagraph" font-family="Liberation Sans, sans-serif" font-size="353px" font-weight="400"><tspan class="TextPosition" x="13158" y="3367"><tspan fill="rgb(0,0,0)" stroke="none">dwconv d param</tspan></tspan></tspan></text>
 <text class="TextShape"><tspan class="TextParagraph" font-family="Liberation Sans, sans-serif" font-size="353px" font-weight="400"><tspan class="TextPosition" x="13158" y="3865"><tspan fill="rgb(0,0,0)" stroke="none">dwconv back</tspan></tspan></tspan></text>
 <text class="TextShape"><tspan class="TextParagraph" font-family="Liberation Sans, sans-serif" font-size="353px" font-weight="400"><tspan class="TextPosition" x="13158" y="4363"><tspan fill="rgb(0,0,0)" stroke="none">dwconv forward</tspan></tspan></tspan></text>
 <text class="TextShape"><tspan class="TextParagraph" font-family="Liberation Sans, sans-serif" font-size="353px" font-weight="400"><tspan class="TextPosition" x="13158" y="4860"><tspan fill="rgb(0,0,0)" stroke="none">pool back</tspan></tspan></tspan></text>
 <text class="TextShape"><tspan class="TextParagraph" font-family="Liberation Sans, sans-serif" font-size="353px" font-weight="400"><tspan class="TextPosition" x="13158" y="5358"><tspan fill="rgb(0,0,0)" stroke="none">pool forward</tspan></tspan></tspan></text>
 <text class="TextShape"><tspan class="TextParagraph" font-family="Liberation Sans, sans-serif" font-size="353px" font-weight="400"><tspan class="TextPosition" x="13158" y="5856"><tspan fill="rgb(0,0,0)" stroke="none">activ back</tspan></tspan></tspan></text>
 <text class="TextShape"><tspan class="TextParagraph" font-family="Liberation Sans, sans-serif" font-size="353px" font-weight="400"><tspan class="TextPosition" x="13158" y="6354"><tspan fill="rgb(0,0,0)" stroke="none">activ forward</tspan></tspan></tspan></text>
 <text class="TextShape"><tspan class="TextParagraph" font-family="Liberation Sans, sans-serif" font-size="353px" font-weight="400"><tspan class="TextPosition" x="13158" y="6852"><tspan fill="rgb(0,0,0)" stroke="none">other</tspan></tspan></tspan></text>
 <text class="TextShape"><tspan class="TextParagraph" font-family="Liberation Sans, sans-serif" font-size="353px" font-weight="400"><tspan class="TextPosition" x="13158" y="7350"><tspan fill="rgb(0,0,0)" stroke="none">total</tspan></tspan></tspan></text>
</svg>