<svg xmlns="http://www.w3.org/2000/svg" xmlns:xlink="http://www.w3.org/1999/xlink" width= "485.7534418139947" height="119.8" viewBox="-40 -52.9 485.7534418139947 119.8">
<line x1="0" y1="9.100000000000001" x2="0" y2="-18.9" stroke-width="1" stroke-dasharray="none" stroke="rgb(0, 0, 0)"/>
<line x1="1.0" y1="9.100000000000001" x2="1.0" y2="-18.9" stroke-width="1" stroke-dasharray="1" stroke="rgb(0, 0, 0)"/>
<line x1="16.974097914174997" y1="18.9" x2="16.974097914174997" y2="-9.100000000000001" stroke-width="1" stroke-dasharray="none" stroke="rgb(0, 0, 0)"/>
<line x1="17.974097914174997" y1="18.9" x2="17.974097914174997" y2="-9.100000000000001" stroke-width="1" stroke-dasharray="none" stroke="rgb(0, 0, 0)"/>
<line x1="0" y1="9.100000000000001" x2="16.974097914174997" y2="18.9" stroke-width="1" stroke-dasharray="none" stroke="rgb(0, 0, 0)"/>
<line x1="0" y1="-18.9" x2="16.974097914174997" y2="-9.100000000000001" stroke-width="1" stroke-dasharray="none" stroke="rgb(0, 0, 0)"/>
<line x1="1.0" y1="9.100000000000001" x2="17.974097914174997" y2="18.9" stroke-width="1" stroke-dasharray="1" stroke="rgb(0, 0, 0)"/>
<line x1="1.0" y1="-18.9" x2="17.974097914174997" y2="-9.100000000000001" stroke-width="1" stroke-dasharray="none" stroke="rgb(0, 0, 0)"/>
<line x1="0" y1="9.100000000000001" x2="1.0" y2="9.100000000000001" stroke-width="1" stroke-dasharray="1" stroke="rgb(0, 0, 0)"/>
<line x1="16.974097914174997" y1="18.9" x2="17.974097914174997" y2="18.9" stroke-width="1" stroke-dasharray="none" stroke="rgb(0, 0, 0)"/>
<line x1="0" y1="-18.9" x2="1.0" y2="-18.9" stroke-width="1" stroke-dasharray="none" stroke="rgb(0, 0, 0)"/>
<line x1="16.974097914174997" y1="-9.100000000000001" x2="17.974097914174997" y2="-9.100000000000001" stroke-width="1" stroke-dasharray="none" stroke="rgb(0, 0, 0)"/>
<text x="8.987048957087499" y="-28.9" font-family="arial" font-size="14px" text-anchor="middle" fill="rgb(0, 0, 0)">28x28x1</text>
<line x1="82.97409791417499" y1="7.800000000000002" x2="82.97409791417499" y2="-16.2" stroke-width="1" stroke-dasharray="none" stroke="rgb(0, 0, 0)"/>
<line x1="87.16706062680447" y1="7.800000000000002" x2="87.16706062680447" y2="-16.2" stroke-width="1" stroke-dasharray="1" stroke="rgb(0, 0, 0)"/>
<line x1="97.52332469775357" y1="16.2" x2="97.52332469775357" y2="-7.800000000000002" stroke-width="1" stroke-dasharray="none" stroke="rgb(0, 0, 0)"/>
<line x1="101.71628741038303" y1="16.2" x2="101.71628741038303" y2="-7.800000000000002" stroke-width="1" stroke-dasharray="none" stroke="rgb(0, 0, 0)"/>
<line x1="82.97409791417499" y1="7.800000000000002" x2="97.52332469775357" y2="16.2" stroke-width="1" stroke-dasharray="none" stroke="rgb(0, 0, 0)"/>
<line x1="82.97409791417499" y1="-16.2" x2="97.52332469775357" y2="-7.800000000000002" stroke-width="1" stroke-dasharray="none" stroke="rgb(0, 0, 0)"/>
<line x1="87.16706062680447" y1="7.800000000000002" x2="101.71628741038303" y2="16.2" stroke-width="1" stroke-dasharray="1" stroke="rgb(0, 0, 0)"/>
<line x1="87.16706062680447" y1="-16.2" x2="101.71628741038303" y2="-7.800000000000002" stroke-width="1" stroke-dasharray="none" stroke="rgb(0, 0, 0)"/>
<line x1="82.97409791417499" y1="7.800000000000002" x2="87.16706062680447" y2="7.800000000000002" stroke-width="1" stroke-dasharray="1" stroke="rgb(0, 0, 0)"/>
<line x1="97.52332469775357" y1="16.2" x2="101.71628741038303" y2="16.2" stroke-width="1" stroke-dasharray="none" stroke="rgb(0, 0, 0)"/>
<line x1="82.97409791417499" y1="-16.2" x2="87.16706062680447" y2="-16.2" stroke-width="1" stroke-dasharray="none" stroke="rgb(0, 0, 0)"/>
<line x1="97.52332469775357" y1="-7.800000000000002" x2="101.71628741038303" y2="-7.800000000000002" stroke-width="1" stroke-dasharray="none" stroke="rgb(0, 0, 0)"/>
<text x="92.34519266227902" y="-26.2" font-family="arial" font-size="14px" text-anchor="middle" fill="rgb(0, 0, 0)">24x24x6</text>
<line x1="166.71628741038305" y1="3.900000000000001" x2="166.71628741038305" y2="-8.1" stroke-width="1" stroke-dasharray="none" stroke="rgb(0, 0, 0)"/>
<line x1="170.90925012301253" y1="3.900000000000001" x2="170.90925012301253" y2="-8.1" stroke-width="1" stroke-dasharray="1" stroke="rgb(0, 0, 0)"/>
<line x1="173.99090080217232" y1="8.1" x2="173.99090080217232" y2="-3.900000000000001" stroke-width="1" stroke-dasharray="none" stroke="rgb(0, 0, 0)"/>
<line x1="178.1838635148018" y1="8.1" x2="178.1838635148018" y2="-3.900000000000001" stroke-width="1" stroke-dasharray="none" stroke="rgb(0, 0, 0)"/>
<line x1="166.71628741038305" y1="3.900000000000001" x2="173.99090080217232" y2="8.1" stroke-width="1" stroke-dasharray="none" stroke="rgb(0, 0, 0)"/>
<line x1="166.71628741038305" y1="-8.1" x2="173.99090080217232" y2="-3.900000000000001" stroke-width="1" stroke-dasharray="none" stroke="rgb(0, 0, 0)"/>
<line x1="170.90925012301253" y1="3.900000000000001" x2="178.1838635148018" y2="8.1" stroke-width="1" stroke-dasharray="1" stroke="rgb(0, 0, 0)"/>
<line x1="170.90925012301253" y1="-8.1" x2="178.1838635148018" y2="-3.900000000000001" stroke-width="1" stroke-dasharray="none" stroke="rgb(0, 0, 0)"/>
<line x1="166.71628741038305" y1="3.900000000000001" x2="170.90925012301253" y2="3.900000000000001" stroke-width="1" stroke-dasharray="1" stroke="rgb(0, 0, 0)"/>
<line x1="173.99090080217232" y1="8.1" x2="178.1838635148018" y2="8.1" stroke-width="1" stroke-dasharray="none" stroke="rgb(0, 0, 0)"/>
<line x1="166.71628741038305" y1="-8.1" x2="170.90925012301253" y2="-8.1" stroke-width="1" stroke-dasharray="none" stroke="rgb(0, 0, 0)"/>
<line x1="173.99090080217232" y1="-3.900000000000001" x2="178.1838635148018" y2="-3.900000000000001" stroke-width="1" stroke-dasharray="none" stroke="rgb(0, 0, 0)"/>
<text x="172.45007546259242" y="-18.1" font-family="arial" font-size="14px" text-anchor="middle" fill="rgb(0, 0, 0)">12x12x6</text>
<line x1="243.1838635148018" y1="2.6000000000000005" x2="243.1838635148018" y2="-5.3999999999999995" stroke-width="1" stroke-dasharray="none" stroke="rgb(0, 0, 0)"/>
<line x1="252.37345035477807" y1="2.6000000000000005" x2="252.37345035477807" y2="-5.3999999999999995" stroke-width="1" stroke-dasharray="1" stroke="rgb(0, 0, 0)"/>
<line x1="248.03360577599466" y1="5.4" x2="248.03360577599466" y2="-2.6000000000000005" stroke-width="1" stroke-dasharray="none" stroke="rgb(0, 0, 0)"/>
<line x1="257.22319261597096" y1="5.4" x2="257.22319261597096" y2="-2.6000000000000005" stroke-width="1" stroke-dasharray="none" stroke="rgb(0, 0, 0)"/>
<line x1="243.1838635148018" y1="2.6000000000000005" x2="248.03360577599466" y2="5.4" stroke-width="1" stroke-dasharray="none" stroke="rgb(0, 0, 0)"/>
<line x1="243.1838635148018" y1="-5.3999999999999995" x2="248.03360577599466" y2="-2.6000000000000005" stroke-width="1" stroke-dasharray="none" stroke="rgb(0, 0, 0)"/>
<line x1="252.37345035477807" y1="2.6000000000000005" x2="257.22319261597096" y2="5.4" stroke-width="1" stroke-dasharray="1" stroke="rgb(0, 0, 0)"/>
<line x1="252.37345035477807" y1="-5.3999999999999995" x2="257.22319261597096" y2="-2.6000000000000005" stroke-width="1" stroke-dasharray="none" stroke="rgb(0, 0, 0)"/>
<line x1="243.1838635148018" y1="2.6000000000000005" x2="252.37345035477807" y2="2.6000000000000005" stroke-width="1" stroke-dasharray="1" stroke="rgb(0, 0, 0)"/>
<line x1="248.03360577599466" y1="5.4" x2="257.22319261597096" y2="5.4" stroke-width="1" stroke-dasharray="none" stroke="rgb(0, 0, 0)"/>
<line x1="243.1838635148018" y1="-5.3999999999999995" x2="252.37345035477807" y2="-5.3999999999999995" stroke-width="1" stroke-dasharray="none" stroke="rgb(0, 0, 0)"/>
<line x1="248.03360577599466" y1="-2.6000000000000005" x2="257.22319261597096" y2="-2.6000000000000005" stroke-width="1" stroke-dasharray="none" stroke="rgb(0, 0, 0)"/>
<text x="250.20352806538637" y="-15.399999999999999" font-family="arial" font-size="14px" text-anchor="middle" fill="rgb(0, 0, 0)">8x8x16</text>
<line x1="322.22319261597096" y1="1.3000000000000003" x2="322.22319261597096" y2="-2.6999999999999997" stroke-width="1" stroke-dasharray="none" stroke="rgb(0, 0, 0)"/>
<line x1="331.41277945594726" y1="1.3000000000000003" x2="331.41277945594726" y2="-2.6999999999999997" stroke-width="1" stroke-dasharray="1" stroke="rgb(0, 0, 0)"/>
<line x1="324.6480637465674" y1="2.7" x2="324.6480637465674" y2="-1.3000000000000003" stroke-width="1" stroke-dasharray="none" stroke="rgb(0, 0, 0)"/>
<line x1="333.83765058654365" y1="2.7" x2="333.83765058654365" y2="-1.3000000000000003" stroke-width="1" stroke-dasharray="none" stroke="rgb(0, 0, 0)"/>
<line x1="322.22319261597096" y1="1.3000000000000003" x2="324.6480637465674" y2="2.7" stroke-width="1" stroke-dasharray="none" stroke="rgb(0, 0, 0)"/>
<line x1="322.22319261597096" y1="-2.6999999999999997" x2="324.6480637465674" y2="-1.3000000000000003" stroke-width="1" stroke-dasharray="none" stroke="rgb(0, 0, 0)"/>
<line x1="331.41277945594726" y1="1.3000000000000003" x2="333.83765058654365" y2="2.7" stroke-width="1" stroke-dasharray="1" stroke="rgb(0, 0, 0)"/>
<line x1="331.41277945594726" y1="-2.6999999999999997" x2="333.83765058654365" y2="-1.3000000000000003" stroke-width="1" stroke-dasharray="none" stroke="rgb(0, 0, 0)"/>
<line x1="322.22319261597096" y1="1.3000000000000003" x2="331.41277945594726" y2="1.3000000000000003" stroke-width="1" stroke-dasharray="1" stroke="rgb(0, 0, 0)"/>
<line x1="324.6480637465674" y1="2.7" x2="333.83765058654365" y2="2.7" stroke-width="1" stroke-dasharray="none" stroke="rgb(0, 0, 0)"/>
<line x1="322.22319261597096" y1="-2.6999999999999997" x2="331.41277945594726" y2="-2.6999999999999997" stroke-width="1" stroke-dasharray="none" stroke="rgb(0, 0, 0)"/>
<line x1="324.6480637465674" y1="-1.3000000000000003" x2="333.83765058654365" y2="-1.3000000000000003" stroke-width="1" stroke-dasharray="none" stroke="rgb(0, 0, 0)"/>
<text x="328.03042160125733" y="-12.7" font-family="arial" font-size="14px" text-anchor="middle" fill="rgb(0, 0, 0)">4x4x16</text>
<line x1="398.8376505865437" y1="0.32500000000000007" x2="398.8376505865437" y2="-0.6749999999999999" stroke-width="1" stroke-dasharray="none" stroke="rgb(0, 0, 0)"/>
<line x1="405.1472240313456" y1="0.32500000000000007" x2="405.1472240313456" y2="-0.6749999999999999" stroke-width="1" stroke-dasharray="1" stroke="rgb(0, 0, 0)"/>
<line x1="399.4438683691928" y1="0.675" x2="399.4438683691928" y2="-0.32500000000000007" stroke-width="1" stroke-dasharray="none" stroke="rgb(0, 0, 0)"/>
<line x1="405.75344181399475" y1="0.675" x2="405.75344181399475" y2="-0.32500000000000007" stroke-width="1" stroke-dasharray="none" stroke="rgb(0, 0, 0)"/>
<line x1="398.8376505865437" y1="0.32500000000000007" x2="399.4438683691928" y2="0.675" stroke-width="1" stroke-dasharray="none" stroke="rgb(0, 0, 0)"/>
<line x1="398.8376505865437" y1="-0.6749999999999999" x2="399.4438683691928" y2="-0.32500000000000007" stroke-width="1" stroke-dasharray="none" stroke="rgb(0, 0, 0)"/>
<line x1="405.1472240313456" y1="0.32500000000000007" x2="405.75344181399475" y2="0.675" stroke-width="1" stroke-dasharray="1" stroke="rgb(0, 0, 0)"/>
<line x1="405.1472240313456" y1="-0.6749999999999999" x2="405.75344181399475" y2="-0.32500000000000007" stroke-width="1" stroke-dasharray="none" stroke="rgb(0, 0, 0)"/>
<line x1="398.8376505865437" y1="0.32500000000000007" x2="405.1472240313456" y2="0.32500000000000007" stroke-width="1" stroke-dasharray="1" stroke="rgb(0, 0, 0)"/>
<line x1="399.4438683691928" y1="0.675" x2="405.75344181399475" y2="0.675" stroke-width="1" stroke-dasharray="none" stroke="rgb(0, 0, 0)"/>
<line x1="398.8376505865437" y1="-0.6749999999999999" x2="405.1472240313456" y2="-0.6749999999999999" stroke-width="1" stroke-dasharray="none" stroke="rgb(0, 0, 0)"/>
<line x1="399.4438683691928" y1="-0.32500000000000007" x2="405.75344181399475" y2="-0.32500000000000007" stroke-width="1" stroke-dasharray="none" stroke="rgb(0, 0, 0)"/>
<text x="402.2955462002692" y="-10.675" font-family="arial" font-size="14px" text-anchor="middle" fill="rgb(0, 0, 0)">1x1x10</text>
<line x1="8.487048957087499" y1="1.625" x2="8.487048957087499" y2="-3.375" stroke-width="1" stroke-dasharray="none" stroke="rgb(0, 0, 255)"/>
<line x1="9.487048957087499" y1="1.625" x2="9.487048957087499" y2="-3.375" stroke-width="1" stroke-dasharray="1" stroke="rgb(0, 0, 255)"/>
<line x1="11.518137870333035" y1="3.375" x2="11.518137870333035" y2="-1.625" stroke-width="1" stroke-dasharray="none" stroke="rgb(0, 0, 255)"/>
<line x1="12.518137870333035" y1="3.375" x2="12.518137870333035" y2="-1.625" stroke-width="1" stroke-dasharray="none" stroke="rgb(0, 0, 255)"/>
<line x1="8.487048957087499" y1="1.625" x2="11.518137870333035" y2="3.375" stroke-width="1" stroke-dasharray="none" stroke="rgb(0, 0, 255)"/>
<line x1="8.487048957087499" y1="-3.375" x2="11.518137870333035" y2="-1.625" stroke-width="1" stroke-dasharray="none" stroke="rgb(0, 0, 255)"/>
<line x1="9.487048957087499" y1="1.625" x2="12.518137870333035" y2="3.375" stroke-width="1" stroke-dasharray="1" stroke="rgb(0, 0, 255)"/>
<line x1="9.487048957087499" y1="-3.375" x2="12.518137870333035" y2="-1.625" stroke-width="1" stroke-dasharray="none" stroke="rgb(0, 0, 255)"/>
<line x1="8.487048957087499" y1="1.625" x2="9.487048957087499" y2="1.625" stroke-width="1" stroke-dasharray="1" stroke="rgb(0, 0, 255)"/>
<line x1="11.518137870333035" y1="3.375" x2="12.518137870333035" y2="3.375" stroke-width="1" stroke-dasharray="none" stroke="rgb(0, 0, 255)"/>
<line x1="8.487048957087499" y1="-3.375" x2="9.487048957087499" y2="-3.375" stroke-width="1" stroke-dasharray="none" stroke="rgb(0, 0, 255)"/>
<line x1="11.518137870333035" y1="-1.625" x2="12.518137870333035" y2="-1.625" stroke-width="1" stroke-dasharray="none" stroke="rgb(0, 0, 255)"/>
<line x1="9.487048957087499" y1="-3.375" x2="86.61140461006963" y2="-8.1" stroke-width="1" stroke-dasharray="none" stroke="rgb(0, 0, 255)"/>
<line x1="12.518137870333035" y1="3.375" x2="86.61140461006963" y2="-8.1" stroke-width="1" stroke-dasharray="none" stroke="rgb(0, 0, 255)"/>
<text x="50.47409791417499" y="42.9" font-family="arial" font-size="14px" text-anchor="middle" fill="rgb(0, 0, 0)">conv5x5, 6</text>
<text x="50.47409791417499" y="56.9" font-family="arial" font-size="14px" text-anchor="middle" fill="rgb(0, 0, 0)">stride (1, 1)</text>
<line x1="90.24871130596428" y1="0.6500000000000001" x2="90.24871130596428" y2="-1.3499999999999999" stroke-width="1" stroke-dasharray="none" stroke="rgb(0, 0, 255)"/>
<line x1="94.44167401859376" y1="0.6500000000000001" x2="94.44167401859376" y2="-1.3499999999999999" stroke-width="1" stroke-dasharray="1" stroke="rgb(0, 0, 255)"/>
<line x1="91.46114687126249" y1="1.35" x2="91.46114687126249" y2="-0.6500000000000001" stroke-width="1" stroke-dasharray="none" stroke="rgb(0, 0, 255)"/>
<line x1="95.65410958389197" y1="1.35" x2="95.65410958389197" y2="-0.6500000000000001" stroke-width="1" stroke-dasharray="none" stroke="rgb(0, 0, 255)"/>
<line x1="90.24871130596428" y1="0.6500000000000001" x2="91.46114687126249" y2="1.35" stroke-width="1" stroke-dasharray="none" stroke="rgb(0, 0, 255)"/>
<line x1="90.24871130596428" y1="-1.3499999999999999" x2="91.46114687126249" y2="-0.6500000000000001" stroke-width="1" stroke-dasharray="none" stroke="rgb(0, 0, 255)"/>
<line x1="94.44167401859376" y1="0.6500000000000001" x2="95.65410958389197" y2="1.35" stroke-width="1" stroke-dasharray="1" stroke="rgb(0, 0, 255)"/>
<line x1="94.44167401859376" y1="-1.3499999999999999" x2="95.65410958389197" y2="-0.6500000000000001" stroke-width="1" stroke-dasharray="none" stroke="rgb(0, 0, 255)"/>
<line x1="90.24871130596428" y1="0.6500000000000001" x2="94.44167401859376" y2="0.6500000000000001" stroke-width="1" stroke-dasharray="1" stroke="rgb(0, 0, 255)"/>
<line x1="91.46114687126249" y1="1.35" x2="95.65410958389197" y2="1.35" stroke-width="1" stroke-dasharray="none" stroke="rgb(0, 0, 255)"/>
<line x1="90.24871130596428" y1="-1.3499999999999999" x2="94.44167401859376" y2="-1.3499999999999999" stroke-width="1" stroke-dasharray="none" stroke="rgb(0, 0, 255)"/>
<line x1="91.46114687126249" y1="-0.6500000000000001" x2="95.65410958389197" y2="-0.6500000000000001" stroke-width="1" stroke-dasharray="none" stroke="rgb(0, 0, 255)"/>
<line x1="94.44167401859376" y1="-1.35" x2="168.53494075833038" y2="-4.05" stroke-width="1" stroke-dasharray="none" stroke="rgb(0, 0, 255)"/>
<line x1="95.65410958389197" y1="1.3499999999999999" x2="168.53494075833038" y2="-4.05" stroke-width="1" stroke-dasharray="none" stroke="rgb(0, 0, 255)"/>
<text x="134.21628741038305" y="40.2" font-family="arial" font-size="14px" text-anchor="middle" fill="rgb(0, 0, 0)">maxpool2x2</text>
<text x="134.21628741038305" y="54.2" font-family="arial" font-size="14px" text-anchor="middle" fill="rgb(0, 0, 0)">stride (2, 2)</text>
<line x1="170.35359410627768" y1="1.625" x2="170.35359410627768" y2="-3.375" stroke-width="1" stroke-dasharray="none" stroke="rgb(0, 0, 255)"/>
<line x1="174.54655681890716" y1="1.625" x2="174.54655681890716" y2="-3.375" stroke-width="1" stroke-dasharray="1" stroke="rgb(0, 0, 255)"/>
<line x1="173.3846830195232" y1="3.375" x2="173.3846830195232" y2="-1.625" stroke-width="1" stroke-dasharray="none" stroke="rgb(0, 0, 255)"/>
<line x1="177.5776457321527" y1="3.375" x2="177.5776457321527" y2="-1.625" stroke-width="1" stroke-dasharray="none" stroke="rgb(0, 0, 255)"/>
<line x1="170.35359410627768" y1="1.625" x2="173.3846830195232" y2="3.375" stroke-width="1" stroke-dasharray="none" stroke="rgb(0, 0, 255)"/>
<line x1="170.35359410627768" y1="-3.375" x2="173.3846830195232" y2="-1.625" stroke-width="1" stroke-dasharray="none" stroke="rgb(0, 0, 255)"/>
<line x1="174.54655681890716" y1="1.625" x2="177.5776457321527" y2="3.375" stroke-width="1" stroke-dasharray="1" stroke="rgb(0, 0, 255)"/>
<line x1="174.54655681890716" y1="-3.375" x2="177.5776457321527" y2="-1.625" stroke-width="1" stroke-dasharray="none" stroke="rgb(0, 0, 255)"/>
<line x1="170.35359410627768" y1="1.625" x2="174.54655681890716" y2="1.625" stroke-width="1" stroke-dasharray="1" stroke="rgb(0, 0, 255)"/>
<line x1="173.3846830195232" y1="3.375" x2="177.5776457321527" y2="3.375" stroke-width="1" stroke-dasharray="none" stroke="rgb(0, 0, 255)"/>
<line x1="170.35359410627768" y1="-3.375" x2="174.54655681890716" y2="-3.375" stroke-width="1" stroke-dasharray="none" stroke="rgb(0, 0, 255)"/>
<line x1="173.3846830195232" y1="-1.625" x2="177.5776457321527" y2="-1.625" stroke-width="1" stroke-dasharray="none" stroke="rgb(0, 0, 255)"/>
<line x1="174.54655681890716" y1="-3.375" x2="244.39629908010002" y2="-2.6999999999999997" stroke-width="1" stroke-dasharray="none" stroke="rgb(0, 0, 255)"/>
<line x1="177.5776457321527" y1="3.375" x2="244.39629908010002" y2="-2.6999999999999997" stroke-width="1" stroke-dasharray="none" stroke="rgb(0, 0, 255)"/>
<text x="210.6838635148018" y="32.1" font-family="arial" font-size="14px" text-anchor="middle" fill="rgb(0, 0, 0)">conv5x5, 16</text>
<text x="210.6838635148018" y="46.1" font-family="arial" font-size="14px" text-anchor="middle" fill="rgb(0, 0, 0)">stride (1, 1)</text>
<line x1="245.60873464539821" y1="0.6500000000000001" x2="245.60873464539821" y2="-1.3499999999999999" stroke-width="1" stroke-dasharray="none" stroke="rgb(0, 0, 255)"/>
<line x1="254.7983214853745" y1="0.6500000000000001" x2="254.7983214853745" y2="-1.3499999999999999" stroke-width="1" stroke-dasharray="1" stroke="rgb(0, 0, 255)"/>
<line x1="246.82117021069644" y1="1.35" x2="246.82117021069644" y2="-0.6500000000000001" stroke-width="1" stroke-dasharray="none" stroke="rgb(0, 0, 255)"/>
<line x1="256.01075705067274" y1="1.35" x2="256.01075705067274" y2="-0.6500000000000001" stroke-width="1" stroke-dasharray="none" stroke="rgb(0, 0, 255)"/>
<line x1="245.60873464539821" y1="0.6500000000000001" x2="246.82117021069644" y2="1.35" stroke-width="1" stroke-dasharray="none" stroke="rgb(0, 0, 255)"/>
<line x1="245.60873464539821" y1="-1.3499999999999999" x2="246.82117021069644" y2="-0.6500000000000001" stroke-width="1" stroke-dasharray="none" stroke="rgb(0, 0, 255)"/>
<line x1="254.7983214853745" y1="0.6500000000000001" x2="256.01075705067274" y2="1.35" stroke-width="1" stroke-dasharray="1" stroke="rgb(0, 0, 255)"/>
<line x1="254.7983214853745" y1="-1.3499999999999999" x2="256.01075705067274" y2="-0.6500000000000001" stroke-width="1" stroke-dasharray="none" stroke="rgb(0, 0, 255)"/>
<line x1="245.60873464539821" y1="0.6500000000000001" x2="254.7983214853745" y2="0.6500000000000001" stroke-width="1" stroke-dasharray="1" stroke="rgb(0, 0, 255)"/>
<line x1="246.82117021069644" y1="1.35" x2="256.01075705067274" y2="1.35" stroke-width="1" stroke-dasharray="none" stroke="rgb(0, 0, 255)"/>
<line x1="245.60873464539821" y1="-1.3499999999999999" x2="254.7983214853745" y2="-1.3499999999999999" stroke-width="1" stroke-dasharray="none" stroke="rgb(0, 0, 255)"/>
<line x1="246.82117021069644" y1="-0.6500000000000001" x2="256.01075705067274" y2="-0.6500000000000001" stroke-width="1" stroke-dasharray="none" stroke="rgb(0, 0, 255)"/>
<line x1="254.7983214853745" y1="-1.35" x2="322.82941039862004" y2="-1.3499999999999999" stroke-width="1" stroke-dasharray="none" stroke="rgb(0, 0, 255)"/>
<line x1="256.0107570506727" y1="1.3499999999999999" x2="322.82941039862004" y2="-1.3499999999999999" stroke-width="1" stroke-dasharray="none" stroke="rgb(0, 0, 255)"/>
<text x="289.72319261597096" y="29.4" font-family="arial" font-size="14px" text-anchor="middle" fill="rgb(0, 0, 0)">maxpool2x2</text>
<text x="289.72319261597096" y="43.4" font-family="arial" font-size="14px" text-anchor="middle" fill="rgb(0, 0, 0)">stride (2, 2)</text>
<line x1="323.4356281812692" y1="1.3000000000000003" x2="323.4356281812692" y2="-2.6999999999999997" stroke-width="1" stroke-dasharray="none" stroke="rgb(0, 0, 255)"/>
<line x1="332.6252150212455" y1="1.3000000000000003" x2="332.6252150212455" y2="-2.6999999999999997" stroke-width="1" stroke-dasharray="1" stroke="rgb(0, 0, 255)"/>
<line x1="325.8604993118656" y1="2.7" x2="325.8604993118656" y2="-1.3000000000000003" stroke-width="1" stroke-dasharray="none" stroke="rgb(0, 0, 255)"/>
<line x1="335.05008615184187" y1="2.7" x2="335.05008615184187" y2="-1.3000000000000003" stroke-width="1" stroke-dasharray="none" stroke="rgb(0, 0, 255)"/>
<line x1="323.4356281812692" y1="1.3000000000000003" x2="325.8604993118656" y2="2.7" stroke-width="1" stroke-dasharray="none" stroke="rgb(0, 0, 255)"/>
<line x1="323.4356281812692" y1="-2.6999999999999997" x2="325.8604993118656" y2="-1.3000000000000003" stroke-width="1" stroke-dasharray="none" stroke="rgb(0, 0, 255)"/>
<line x1="332.6252150212455" y1="1.3000000000000003" x2="335.05008615184187" y2="2.7" stroke-width="1" stroke-dasharray="1" stroke="rgb(0, 0, 255)"/>
<line x1="332.6252150212455" y1="-2.6999999999999997" x2="335.05008615184187" y2="-1.3000000000000003" stroke-width="1" stroke-dasharray="none" stroke="rgb(0, 0, 255)"/>
<line x1="323.4356281812692" y1="1.3000000000000003" x2="332.6252150212455" y2="1.3000000000000003" stroke-width="1" stroke-dasharray="1" stroke="rgb(0, 0, 255)"/>
<line x1="325.8604993118656" y1="2.7" x2="335.05008615184187" y2="2.7" stroke-width="1" stroke-dasharray="none" stroke="rgb(0, 0, 255)"/>
<line x1="323.4356281812692" y1="-2.6999999999999997" x2="332.6252150212455" y2="-2.6999999999999997" stroke-width="1" stroke-dasharray="none" stroke="rgb(0, 0, 255)"/>
<line x1="325.8604993118656" y1="-1.3000000000000003" x2="335.05008615184187" y2="-1.3000000000000003" stroke-width="1" stroke-dasharray="none" stroke="rgb(0, 0, 255)"/>
<line x1="332.6252150212455" y1="-2.7" x2="398.989205032206" y2="-0.33749999999999997" stroke-width="1" stroke-dasharray="none" stroke="rgb(0, 0, 255)"/>
<line x1="335.0500861518419" y1="2.6999999999999997" x2="398.989205032206" y2="-0.33749999999999997" stroke-width="1" stroke-dasharray="none" stroke="rgb(0, 0, 255)"/>
<text x="366.3376505865437" y="26.7" font-family="arial" font-size="14px" text-anchor="middle" fill="rgb(0, 0, 0)">conv4x4, 10</text>
<text x="366.3376505865437" y="40.7" font-family="arial" font-size="14px" text-anchor="middle" fill="rgb(0, 0, 0)">stride (1, 1)</text>
</svg>